<svg width="30" height="24" viewBox="0 0 30 24" fill="none" xmlns="http://www.w3.org/2000/svg">
<path d="M0 24L1.05114 16.8693C1.35417 14.8446 1.98864 12.7758 2.95455 10.663C3.93939 8.55021 5.12311 6.55846 6.50568 4.68776C7.9072 2.81705 9.36553 1.25447 10.8807 0L15.6534 3.66438C14.3087 5.6011 13.1439 7.62586 12.1591 9.73865C11.1742 11.8514 10.5019 14.2063 10.142 16.8033L9.09091 24H0ZM14.3466 24L15.3977 16.8693C15.7008 14.8446 16.3352 12.7758 17.3011 10.663C18.286 8.55021 19.4697 6.55846 20.8523 4.68776C22.2538 2.81705 23.7121 1.25447 25.2273 0L30 3.66438C28.6553 5.6011 27.4905 7.62586 26.5057 9.73865C25.5208 11.8514 24.8485 14.2063 24.4886 16.8033L23.4375 24H14.3466Z" fill="#EB4074"/>
</svg>
