<svg width="30" height="24" viewBox="0 0 30 24" fill="none" xmlns="http://www.w3.org/2000/svg">
<path d="M15.6695 0L14.6724 7.13067C14.3875 9.15543 13.7512 11.2242 12.7635 13.337C11.7949 15.4278 10.6173 17.4085 9.23077 19.2792C7.84425 21.1279 6.40076 22.7015 4.90029 24L0 20.3356C1.19658 18.597 2.30769 16.6713 3.33333 14.5585C4.37797 12.4457 5.09972 9.99175 5.49857 7.1967L6.55271 0H15.6695ZM30 0L28.9744 7.13067C28.7085 9.15543 28.0817 11.2242 27.094 13.337C26.1064 15.4278 24.9193 17.4085 23.5328 19.2792C22.1462 21.1279 20.7028 22.7015 19.2023 24L14.302 20.3356C15.4986 18.597 16.6097 16.6713 17.6353 14.5585C18.68 12.4457 19.4112 9.99175 19.8291 7.1967L20.8832 0H30Z" fill="#EB4074"/>
</svg>
