<svg width="112" height="27" viewBox="0 0 112 27" fill="none" xmlns="http://www.w3.org/2000/svg">
<g clip-path="url(#clip0_147_212)">
<path d="M31.069 24.8588L32.9551 24.4986C33.1144 25.0652 33.5197 25.3486 34.1774 25.3486C34.6882 25.3486 34.9426 25.2036 34.9426 24.9159C34.9426 24.7643 34.8827 24.6479 34.7648 24.5623C34.6469 24.4766 34.4359 24.4041 34.1319 24.3382C32.9717 24.101 32.2271 23.7935 31.8962 23.4136C31.5653 23.0336 31.4019 22.5855 31.4019 22.0694C31.4019 21.4061 31.6377 20.857 32.1113 20.4155C32.5849 19.9762 33.2653 19.7566 34.1547 19.7566C35.5031 19.7566 36.3924 20.332 36.8247 21.4807L35.1432 22.0211C34.9695 21.551 34.6159 21.316 34.0823 21.316C33.6397 21.316 33.4184 21.461 33.4184 21.7531C33.4184 21.8827 33.468 21.9837 33.5694 22.0562C33.6707 22.1287 33.863 22.1968 34.1505 22.2627C34.9426 22.4406 35.5052 22.5987 35.8381 22.7349C36.1711 22.871 36.4482 23.1061 36.6716 23.4377C36.895 23.7694 37.0067 24.1603 37.0067 24.6106C37.0067 25.3222 36.7357 25.8976 36.1918 26.3391C35.6499 26.7806 34.9364 27.0002 34.0533 27.0002C32.4402 27.0002 31.4454 26.2864 31.0669 24.8588H31.069Z" fill="white"/>
<path d="M40.6427 27C39.712 27 38.953 26.6727 38.3677 26.016C37.7824 25.3593 37.4888 24.4829 37.4888 23.3848C37.4888 22.2866 37.77 21.4673 38.3305 20.7821C38.891 20.0968 39.6686 19.7542 40.6655 19.7542C41.5858 19.7542 42.3365 20.077 42.9177 20.7227C43.4988 21.3685 43.7884 22.2295 43.7884 23.3079C43.7884 24.3863 43.4968 25.3176 42.9115 25.9897C42.3262 26.6617 41.5713 26.9978 40.6468 26.9978L40.6427 27ZM40.6324 25.4032C40.9757 25.4032 41.2218 25.2451 41.3707 24.9266C41.5196 24.6081 41.5961 24.0283 41.5961 23.1849C41.5961 21.9637 41.288 21.3531 40.6696 21.3531C40.0037 21.3531 39.6707 22.0494 39.6707 23.4441C39.6707 24.7509 39.9912 25.4054 40.6303 25.4054L40.6324 25.4032Z" fill="white"/>
<path d="M49.281 25.1683V26.8924H44.6421V19.8662H46.673V25.1683H49.281Z" fill="white"/>
<path d="M55.3056 19.8662V24.5203C55.3056 25.4033 55.0595 26.0358 54.5673 26.4224C54.0751 26.8089 53.4319 27.0022 52.6398 27.0022C51.8063 27.0022 51.1362 26.8177 50.6316 26.4465C50.1269 26.0754 49.8726 25.4714 49.8726 24.6345V19.8684H51.9366V24.382C51.9366 24.718 52.0028 24.964 52.1372 25.1177C52.2716 25.2715 52.4846 25.3484 52.7783 25.3484C53.0224 25.3484 53.223 25.2934 53.3802 25.1814C53.5373 25.0694 53.6304 24.9442 53.6614 24.8037C53.6925 24.6631 53.7069 24.3885 53.7069 23.98V19.8662H55.3056Z" fill="white"/>
<path d="M59.111 21.5486V26.8924H57.1876V21.5486H55.8164V19.8662H60.4842V21.5486H59.1131H59.111Z" fill="white"/>
<path d="M63.0905 19.8662V26.8924H61.0596V19.8662H63.0905Z" fill="white"/>
<path d="M67.1046 27C66.174 27 65.4149 26.6727 64.8297 26.016C64.2444 25.3593 63.9507 24.4829 63.9507 23.3848C63.9507 22.2866 64.232 21.4673 64.7924 20.7821C65.3529 20.0968 66.1305 19.7542 67.1274 19.7542C68.0477 19.7542 68.7985 20.077 69.3796 20.7227C69.9608 21.3685 70.2503 22.2295 70.2503 23.3079C70.2503 24.3863 69.9587 25.3176 69.3734 25.9897C68.7881 26.6617 68.0332 26.9978 67.1088 26.9978L67.1046 27ZM67.0943 25.4032C67.4376 25.4032 67.6837 25.2451 67.8326 24.9266C67.9815 24.6081 68.058 24.0283 68.058 23.1849C68.058 21.9637 67.7499 21.3531 67.1315 21.3531C66.4656 21.3531 66.1326 22.0494 66.1326 23.4441C66.1326 24.7509 66.4532 25.4054 67.0922 25.4054L67.0943 25.4032Z" fill="white"/>
<path d="M76.759 26.8924H75.1065L73.2948 23.7867C73.0632 23.3892 72.8274 22.9038 72.5916 22.3349C72.6992 22.7874 72.7509 23.1717 72.7509 23.488V26.8902H71.1025V19.864H73.0218L74.5626 22.4382C74.8687 22.9499 75.1024 23.4002 75.2595 23.7867C75.1561 23.1871 75.1044 22.5721 75.1044 21.944V19.864H76.7569V26.8902L76.759 26.8924Z" fill="white"/>
<path d="M77.2301 24.8585L79.1163 24.4983C79.2755 25.065 79.6809 25.3483 80.3385 25.3483C80.8494 25.3483 81.1038 25.2034 81.1038 24.9156C81.1038 24.7641 81.0438 24.6477 80.9259 24.562C80.808 24.4764 80.5971 24.4039 80.293 24.338C79.1328 24.1008 78.3883 23.7933 78.0574 23.4133C77.7265 23.0333 77.5631 22.5853 77.5631 22.0691C77.5631 21.4058 77.7988 20.8567 78.2725 20.4153C78.7461 19.976 79.4265 19.7563 80.3158 19.7563C81.6642 19.7563 82.5535 20.3318 82.9858 21.4805L81.3044 22.0208C81.1307 21.5508 80.777 21.3158 80.2434 21.3158C79.8008 21.3158 79.5795 21.4607 79.5795 21.7529C79.5795 21.8824 79.6292 21.9835 79.7305 22.0559C79.8318 22.1284 80.0242 22.1965 80.3117 22.2624C81.1038 22.4403 81.6663 22.5985 81.9993 22.7346C82.3323 22.8708 82.6094 23.1058 82.8327 23.4375C83.0561 23.7691 83.1678 24.1601 83.1678 24.6103C83.1678 25.322 82.8969 25.8974 82.3529 26.3389C81.8111 26.7803 81.0976 27 80.2145 27C78.6013 27 77.6065 26.2862 77.228 24.8585H77.2301Z" fill="white"/>
<path d="M10.9787 15.7304H8.04603L4.83004 9.6662C4.41641 8.88868 4.00071 7.94424 3.58087 6.83288C3.77114 7.71801 3.86421 8.46917 3.86421 9.08416V15.7304H0.941895V2.00745H4.34816L7.08227 7.03494C7.62619 8.03429 8.03983 8.91284 8.3211 9.66839C8.13703 8.49553 8.04603 7.29631 8.04603 6.06854V2.00745H10.9787V15.7304Z" fill="white"/>
<path d="M21.857 12.4534V15.7304H13.0239V2.00745H21.857V5.17461H16.5584V7.16453H20.8416V10.2109H16.5584V12.4534H21.857Z" fill="white"/>
<path d="M33.3314 2.00745L29.919 8.37253L33.8733 15.7304H29.6811L27.5137 11.4079L25.3256 15.7304H22.0269L25.8075 8.64488L22.1799 2.00745H26.3824L28.2045 5.70174L30.0948 2.00745H33.3294H33.3314Z" fill="white"/>
<path d="M41.1281 15.7304L40.4643 13.0266H37.3186L36.6133 15.7304H33.689L37.3124 2.00745H41.1219L44.8033 15.7304H41.1261H41.1281ZM37.9328 10.0286H39.8314L38.8821 6.04657L37.9328 10.0286Z" fill="white"/>
<path d="M60.2404 10.7446V15.7304H56.5859V2.00745H61.5992C62.8483 2.00745 63.7997 2.17437 64.4512 2.51042C65.1026 2.84646 65.6176 3.35822 65.9981 4.04788C66.3787 4.73754 66.571 5.51286 66.571 6.36944C66.571 7.67628 66.1801 8.73274 65.4004 9.53661C64.6208 10.3405 63.5805 10.7424 62.2796 10.7424H60.2404V10.7446ZM60.1887 7.79928H61.3923C62.4533 7.79928 62.9828 7.34463 62.9828 6.43094C62.9828 5.57216 62.4926 5.14387 61.5123 5.14387H60.1887V7.79708V7.79928Z" fill="#70159E"/>
<path d="M77.8693 2.00745V15.7304H74.2666V10.391H71.5139V15.7304H67.9111V2.00745H71.5139V7.05471H74.2666V2.00745H77.8693Z" fill="#70159E"/>
<path d="M88.7394 12.4534V15.7304H79.9062V2.00745H88.7394V5.17461H83.4407V7.16453H87.7239V10.2109H83.4407V12.4534H88.7394Z" fill="#70159E"/>
<path d="M100.617 15.7304H96.6211L94.9066 10.481H93.7712V15.7304H90.1685V2.00745H96.3006C97.6531 2.00745 98.7038 2.37863 99.4524 3.11881C100.201 3.85899 100.575 4.83637 100.575 6.04877C100.575 6.83947 100.437 7.53791 100.162 8.14411C99.8867 8.75031 99.3304 9.28622 98.4928 9.74746L100.617 15.7304ZM93.7712 7.5467H95.3099C95.7628 7.5467 96.1268 7.43688 96.4019 7.21504C96.677 6.99321 96.8155 6.66815 96.8155 6.23986C96.8155 5.36131 96.3543 4.92203 95.4319 4.92203H93.7712V7.5467Z" fill="#70159E"/>
<path d="M111.152 12.4534V15.7304H102.319V2.00745H111.152V5.17461H105.853V7.16453H110.136V10.2109H105.853V12.4534H111.152Z" fill="#70159E"/>
<path d="M49.6596 0V8.90629C47.3432 8.90629 45.4653 6.91198 45.4653 4.45424C45.4653 1.9965 47.3432 0 49.6596 0Z" fill="#70159E"/>
<path d="M49.6597 17.738V8.83167C51.976 8.83167 53.8539 10.826 53.8539 13.2837C53.8539 15.7415 51.976 17.738 49.6597 17.738Z" fill="#70159E"/>
</g>
<defs>
<clipPath id="clip0_147_212">
<rect width="110.21" height="27" fill="white" transform="translate(0.941895)"/>
</clipPath>
</defs>
</svg>
