<svg width="117" height="27" viewBox="0 0 117 27" fill="none" xmlns="http://www.w3.org/2000/svg">
<g clip-path="url(#clip0_147_172)">
<path d="M31.9832 24.8588L33.9855 24.4986C34.1546 25.0653 34.5849 25.3486 35.2831 25.3486C35.8254 25.3486 36.0955 25.2036 36.0955 24.9159C36.0955 24.7644 36.0318 24.6479 35.9066 24.5623C35.7815 24.4766 35.5575 24.4041 35.2348 24.3383C34.0031 24.101 33.2127 23.7936 32.8614 23.4136C32.5101 23.0336 32.3366 22.5856 32.3366 22.0694C32.3366 21.4061 32.5869 20.857 33.0897 20.4155C33.5925 19.9763 34.3149 19.7566 35.2589 19.7566C36.6905 19.7566 37.6346 20.3321 38.0934 21.4808L36.3084 22.0211C36.124 21.5511 35.7486 21.316 35.1821 21.316C34.7123 21.316 34.4773 21.461 34.4773 21.7531C34.4773 21.8827 34.53 21.9837 34.6376 22.0562C34.7452 22.1287 34.9494 22.1968 35.2546 22.2627C36.0955 22.4406 36.6927 22.5987 37.0461 22.7349C37.3996 22.8711 37.6938 23.1061 37.931 23.4377C38.1681 23.7694 38.2866 24.1603 38.2866 24.6106C38.2866 25.3222 37.999 25.8977 37.4216 26.3391C36.8464 26.7806 36.0889 27.0003 35.1514 27.0003C33.4388 27.0003 32.3827 26.2864 31.981 24.8588H31.9832Z" fill="#161A43"/>
<path d="M42.1466 27C41.1586 27 40.3528 26.6728 39.7315 26.016C39.1101 25.3593 38.7983 24.483 38.7983 23.3848C38.7983 22.2866 39.0969 21.4674 39.6919 20.7821C40.2869 20.0968 41.1125 19.7542 42.1707 19.7542C43.1478 19.7542 43.9448 20.077 44.5617 20.7228C45.1787 21.3685 45.4861 22.2295 45.4861 23.3079C45.4861 24.3863 45.1765 25.3176 44.5551 25.9897C43.9338 26.6618 43.1324 26.9978 42.151 26.9978L42.1466 27ZM42.1356 25.4032C42.5001 25.4032 42.7614 25.2451 42.9194 24.9266C43.0775 24.6082 43.1588 24.0283 43.1588 23.1849C43.1588 21.9637 42.8316 21.3531 42.1751 21.3531C41.4682 21.3531 41.1147 22.0494 41.1147 23.4441C41.1147 24.7509 41.455 25.4054 42.1334 25.4054L42.1356 25.4032Z" fill="#161A43"/>
<path d="M51.3173 25.1682V26.8924H46.3926V19.8662H48.5486V25.1682H51.3173Z" fill="#161A43"/>
<path d="M57.7131 19.8662V24.5203C57.7131 25.4032 57.4518 26.0358 56.9293 26.4224C56.4067 26.8089 55.7239 27.0022 54.883 27.0022C53.9982 27.0022 53.2868 26.8177 52.7511 26.4465C52.2154 26.0753 51.9453 25.4713 51.9453 24.6345V19.8684H54.1365V24.3819C54.1365 24.718 54.2068 24.964 54.3495 25.1177C54.4922 25.2715 54.7183 25.3483 55.0301 25.3483C55.2892 25.3483 55.5021 25.2934 55.669 25.1814C55.8359 25.0694 55.9347 24.9442 55.9676 24.8036C56.0005 24.6631 56.0159 24.3885 56.0159 23.98V19.8662H57.7131Z" fill="#161A43"/>
<path d="M61.7529 21.5486V26.8924H59.711V21.5486H58.2554V19.8662H63.2108V21.5486H61.7551H61.7529Z" fill="#161A43"/>
<path d="M65.9773 19.8662V26.8924H63.8213V19.8662H65.9773Z" fill="#161A43"/>
<path d="M70.2389 27C69.2509 27 68.4451 26.6728 67.8237 26.016C67.2024 25.3593 66.8906 24.483 66.8906 23.3848C66.8906 22.2866 67.1892 21.4674 67.7842 20.7821C68.3792 20.0968 69.2048 19.7542 70.263 19.7542C71.2401 19.7542 72.0371 20.077 72.654 20.7228C73.271 21.3685 73.5783 22.2295 73.5783 23.3079C73.5783 24.3863 73.2688 25.3176 72.6474 25.9897C72.0261 26.6618 71.2247 26.9978 70.2433 26.9978L70.2389 27ZM70.2279 25.4032C70.5924 25.4032 70.8536 25.2451 71.0117 24.9266C71.1698 24.6082 71.251 24.0283 71.251 23.1849C71.251 21.9637 70.9239 21.3531 70.2674 21.3531C69.5604 21.3531 69.207 22.0494 69.207 23.4441C69.207 24.7509 69.5473 25.4054 70.2257 25.4054L70.2279 25.4032Z" fill="#161A43"/>
<path d="M80.4878 26.8924H78.7335L76.8102 23.7867C76.5643 23.3892 76.314 22.9038 76.0637 22.3349C76.1779 22.7874 76.2328 23.1717 76.2328 23.488V26.8902H74.4829V19.864H76.5204L78.1561 22.4382C78.4811 22.9499 78.7292 23.4002 78.896 23.7867C78.7862 23.1871 78.7313 22.5721 78.7313 21.944V19.864H80.4856V26.8902L80.4878 26.8924Z" fill="#161A43"/>
<path d="M80.9885 24.8586L82.9909 24.4983C83.1599 25.065 83.5903 25.3483 84.2885 25.3483C84.8308 25.3483 85.1008 25.2034 85.1008 24.9157C85.1008 24.7641 85.0372 24.6477 84.912 24.562C84.7869 24.4764 84.5629 24.4039 84.2402 24.338C83.0085 24.1008 82.218 23.7933 81.8668 23.4133C81.5155 23.0334 81.342 22.5853 81.342 22.0692C81.342 21.4059 81.5923 20.8568 82.0951 20.4153C82.5979 19.976 83.3202 19.7564 84.2643 19.7564C85.6958 19.7564 86.6399 20.3318 87.0988 21.4805L85.3138 22.0208C85.1294 21.5508 84.7539 21.3158 84.1875 21.3158C83.7176 21.3158 83.4827 21.4608 83.4827 21.7529C83.4827 21.8825 83.5354 21.9835 83.643 22.056C83.7506 22.1285 83.9547 22.1965 84.2599 22.2624C85.1008 22.4403 85.698 22.5985 86.0515 22.7347C86.405 22.8708 86.6992 23.1058 86.9363 23.4375C87.1735 23.7691 87.292 24.1601 87.292 24.6104C87.292 25.322 87.0044 25.8974 86.427 26.3389C85.8517 26.7804 85.0942 27 84.1567 27C82.4442 27 81.3881 26.2862 80.9863 24.8586H80.9885Z" fill="#161A43"/>
<path d="M10.6551 15.7304H7.5418L4.12768 9.66623C3.68857 8.88871 3.24726 7.94427 2.80155 6.83291C3.00355 7.71804 3.10235 8.4692 3.10235 9.08419V15.7304H0V2.00748H3.61611L6.51866 7.03497C7.0961 8.03432 7.53521 8.91287 7.83381 9.66842C7.63841 8.49556 7.5418 7.29634 7.5418 6.06857V2.00748H10.6551V15.7304Z" fill="#161A43"/>
<path d="M22.204 12.4534V15.7304H12.8267V2.00748H22.204V5.17464H16.5789V7.16456H21.1259V10.2109H16.5789V12.4534H22.204Z" fill="#161A43"/>
<path d="M34.3848 2.00748L30.7621 8.37256L34.96 15.7304H30.5096L28.2086 11.4079L25.8857 15.7304H22.3838L26.3973 8.64491L22.5463 2.00748H27.0077L28.942 5.70177L30.9487 2.00748H34.3826H34.3848Z" fill="#161A43"/>
<path d="M42.6621 15.7304L41.9574 13.0267H38.6179L37.8692 15.7304H34.7646L38.6113 2.00748H42.6555L46.5637 15.7304H42.6599H42.6621ZM39.27 10.0286H41.2855L40.2777 6.0466L39.27 10.0286Z" fill="#161A43"/>
<path d="M62.9514 10.7446V15.7304H59.0718V2.00748H64.3939C65.72 2.00748 66.7299 2.1744 67.4215 2.51045C68.1132 2.84649 68.6599 3.35825 69.0638 4.04791C69.4678 4.73757 69.672 5.51289 69.672 6.36947C69.672 7.67631 69.2571 8.73277 68.4293 9.53664C67.6016 10.3405 66.4972 10.7424 65.1162 10.7424H62.9514V10.7446ZM62.8965 7.79931H64.1743C65.3006 7.79931 65.8627 7.34466 65.8627 6.43097C65.8627 5.57219 65.3423 5.1439 64.3016 5.1439H62.8965V7.79711V7.79931Z" fill="#70159E"/>
<path d="M81.6664 2.00748V15.7304H77.8417V10.391H74.9194V15.7304H71.0947V2.00748H74.9194V7.05474H77.8417V2.00748H81.6664Z" fill="#70159E"/>
<path d="M93.2064 12.4534V15.7304H83.8291V2.00748H93.2064V5.17464H87.5813V7.16456H92.1284V10.2109H87.5813V12.4534H93.2064Z" fill="#70159E"/>
<path d="M105.816 15.7304H101.574L99.7537 10.4811H98.5483V15.7304H94.7236V2.00748H101.234C102.669 2.00748 103.785 2.37866 104.58 3.11884C105.374 3.85902 105.772 4.8364 105.772 6.0488C105.772 6.8395 105.625 7.53794 105.333 8.14414C105.041 8.75034 104.45 9.28625 103.561 9.74749L105.816 15.7304ZM98.5483 7.54673H100.182C100.663 7.54673 101.049 7.43691 101.341 7.21507C101.633 6.99324 101.78 6.66818 101.78 6.23989C101.78 5.36134 101.291 4.92206 100.311 4.92206H98.5483V7.54673Z" fill="#70159E"/>
<path d="M117 12.4534V15.7304H107.623V2.00748H117V5.17464H111.375V7.16456H115.922V10.2109H111.375V12.4534H117Z" fill="#70159E"/>
<path d="M51.7187 0V8.90629C49.2597 8.90629 47.2661 6.91198 47.2661 4.45424C47.2661 1.9965 49.2597 0 51.7187 0Z" fill="#70159E"/>
<path d="M51.7188 17.7379V8.8316C54.1778 8.8316 56.1714 10.8259 56.1714 13.2836C56.1714 15.7414 54.1778 17.7379 51.7188 17.7379Z" fill="#70159E"/>
</g>
<defs>
<clipPath id="clip0_147_172">
<rect width="117" height="27" fill="white"/>
</clipPath>
</defs>
</svg>
