<svg width="119" height="119" viewBox="0 0 119 119" fill="none" xmlns="http://www.w3.org/2000/svg">
<path d="M99.167 84.2917C99.167 85.6067 98.6446 86.8679 97.7147 87.7978C96.7849 88.7277 95.5237 89.25 94.2087 89.25C92.8936 89.25 91.6324 88.7277 90.7026 87.7978C89.7727 86.8679 89.2503 85.6067 89.2503 84.2917V24.7917C89.2503 23.4767 88.7279 22.2155 87.7981 21.2856C86.8682 20.3558 85.607 19.8334 84.292 19.8334H14.8753C13.5603 19.8334 12.2991 20.3558 11.3693 21.2856C10.4394 22.2155 9.91699 23.4767 9.91699 24.7917V89.25C9.91699 91.8801 10.9618 94.4025 12.8215 96.2622C14.6813 98.1219 17.2036 99.1667 19.8337 99.1667H94.2087C102.41 99.1667 109.084 92.4928 109.084 84.2917V34.7084H99.167V84.2917ZM59.5003 34.7084H74.3753V44.625H59.5003V34.7084ZM59.5003 54.5417H74.3753V64.4584H59.5003V54.5417ZM24.792 34.7084H49.5837V64.4584H24.792V34.7084ZM24.792 84.2917V74.375H74.3753V84.2917H24.792Z" fill="white"/>
</svg>
