<svg width="60" height="60" viewBox="0 0 60 60" fill="none" xmlns="http://www.w3.org/2000/svg">
<path d="M30 39.375L32.625 42L27.75 46.875H43.125V50.625H27.75L32.625 55.5L30 58.125L20.625 48.75L30 39.375ZM13.6162 43.7306L28.5975 28.7494L31.2506 31.4006L16.2693 46.3819L13.6162 43.7306Z" fill="#EB4074"/>
<path d="M43.1251 41.25H39.3751V31.875C39.3751 31.3125 39.5626 30.9375 39.9376 30.5625L47.6251 22.875C50.8126 19.6875 52.5001 15.375 52.5001 10.875V7.5H48.9376C44.4376 7.5 40.1251 9.1875 36.9376 12.375L29.2501 20.0625C29.0626 20.4375 28.6876 20.625 28.1251 20.625H14.0626L9.18761 26.8125L19.1251 28.3125L18.5626 32.0625L5.43761 30.1875C4.68761 30 4.12511 29.625 3.93761 29.0625C3.75011 28.5 3.75011 27.75 4.12511 27.1875L11.6251 17.8125C12.0001 17.0625 12.5626 16.875 13.1251 16.875H27.3751L34.5001 9.75C38.2501 5.8125 43.5001 3.75 48.9376 3.75H52.5001C54.5626 3.75 56.2501 5.4375 56.2501 7.5V11.0625C56.2501 16.5 54.1876 21.75 50.2501 25.6875L43.1251 32.625V41.25Z" fill="#EB4074"/>
</svg>
