<svg width="60" height="60" viewBox="0 0 60 60" fill="none" xmlns="http://www.w3.org/2000/svg">
<path d="M33.75 43.125H30V39.375C29.9985 37.8836 29.4054 36.4537 28.3508 35.3992C27.2963 34.3446 25.8664 33.7515 24.375 33.75H16.875C15.3836 33.7515 13.9537 34.3446 12.8992 35.3992C11.8446 36.4537 11.2515 37.8836 11.25 39.375V43.125H7.5V39.375C7.50298 36.8895 8.49165 34.5067 10.2492 32.7492C12.0067 30.9917 14.3895 30.003 16.875 30H24.375C26.8605 30.003 29.2433 30.9917 31.0008 32.7492C32.7583 34.5067 33.747 36.8895 33.75 39.375V43.125ZM20.625 11.25C21.7375 11.25 22.8251 11.5799 23.7501 12.198C24.6751 12.8161 25.3961 13.6946 25.8218 14.7224C26.2476 15.7502 26.359 16.8812 26.1419 17.9724C25.9249 19.0635 25.3891 20.0658 24.6025 20.8525C23.8158 21.6391 22.8135 22.1749 21.7224 22.3919C20.6312 22.609 19.5002 22.4976 18.4724 22.0718C17.4446 21.6461 16.5661 20.9251 15.948 20.0001C15.3299 19.0751 15 17.9875 15 16.875C15 15.3832 15.5926 13.9524 16.6475 12.8975C17.7024 11.8426 19.1332 11.25 20.625 11.25ZM20.625 7.5C18.7708 7.5 16.9582 8.04983 15.4165 9.07997C13.8748 10.1101 12.6732 11.5743 11.9636 13.2873C11.2541 15.0004 11.0684 16.8854 11.4301 18.704C11.7919 20.5225 12.6848 22.193 13.9959 23.5041C15.307 24.8152 16.9775 25.7081 18.796 26.0699C20.6146 26.4316 22.4996 26.2459 24.2127 25.5364C25.9257 24.8268 27.3899 23.6252 28.42 22.0835C29.4502 20.5418 30 18.7292 30 16.875C30 14.3886 29.0123 12.004 27.2541 10.2459C25.496 8.48772 23.1114 7.5 20.625 7.5ZM3.75 48.75H56.25V52.5H3.75V48.75ZM51.1931 15C50.5261 15.0001 49.8658 15.1338 49.2514 15.3934C48.6369 15.653 48.0807 16.0331 47.6156 16.5112L46.875 17.2688L46.1344 16.5094C45.6693 16.0313 45.113 15.6513 44.4986 15.3918C43.8841 15.1323 43.2239 14.9987 42.5569 14.9987C41.8899 14.9987 41.2296 15.1323 40.6152 15.3918C40.0007 15.6513 39.4445 16.0313 38.9794 16.5094C38.0309 17.4887 37.5005 18.7985 37.5005 20.1619C37.5005 21.5252 38.0309 22.8351 38.9794 23.8144L46.875 31.875L54.7687 23.8162C55.7172 22.8369 56.2476 21.5271 56.2476 20.1637C56.2476 18.8004 55.7172 17.4906 54.7687 16.5112C54.3041 16.0335 53.7485 15.6537 53.1347 15.3941C52.521 15.1346 51.8614 15.0006 51.195 15" fill="#EB4074"/>
</svg>
