<svg width="97" height="97" viewBox="0 0 97 97" fill="none" xmlns="http://www.w3.org/2000/svg">
<path d="M44.458 24.25H56.583L69.8801 10.9125C70.2559 10.5337 70.7029 10.233 71.1954 10.0278C71.6879 9.82262 72.2162 9.71698 72.7497 9.71698C73.2833 9.71698 73.8115 9.82262 74.304 10.0278C74.7966 10.233 75.2436 10.5337 75.6193 10.9125L86.0468 21.3804C86.7996 22.1377 87.2221 23.162 87.2221 24.2298C87.2221 25.2975 86.7996 26.3219 86.0468 27.0792L76.7914 36.375H44.458V44.4583C44.458 45.5302 44.0322 46.5583 43.2743 47.3162C42.5163 48.0742 41.4883 48.5 40.4164 48.5C39.3445 48.5 38.3164 48.0742 37.5585 47.3162C36.8005 46.5583 36.3747 45.5302 36.3747 44.4583V32.3333C36.3747 30.1895 37.2263 28.1335 38.7423 26.6175C40.2582 25.1016 42.3142 24.25 44.458 24.25ZM20.208 44.4583V60.625L10.9526 69.8804C10.1999 70.6377 9.77734 71.662 9.77734 72.7298C9.77734 73.7975 10.1999 74.8219 10.9526 75.5792L21.3801 86.0471C21.7559 86.4259 22.2029 86.7266 22.6954 86.9318C23.1879 87.137 23.7162 87.2426 24.2497 87.2426C24.7833 87.2426 25.3115 87.137 25.804 86.9318C26.2966 86.7266 26.7436 86.4259 27.1193 86.0471L44.458 68.7083H60.6247C61.6966 68.7083 62.7246 68.2825 63.4826 67.5246C64.2406 66.7666 64.6664 65.7386 64.6664 64.6667V60.625H68.708C69.78 60.625 70.808 60.1992 71.5659 59.4412C72.3239 58.6833 72.7497 57.6552 72.7497 56.5833V52.5417H76.7914C77.8633 52.5417 78.8913 52.1158 79.6493 51.3579C80.4072 50.5999 80.833 49.5719 80.833 48.5V44.4583H52.5414V48.5C52.5414 50.6438 51.6897 52.6999 50.1738 54.2158C48.6579 55.7317 46.6019 56.5833 44.458 56.5833H36.3747C34.2309 56.5833 32.1749 55.7317 30.6589 54.2158C29.143 52.6999 28.2914 50.6438 28.2914 48.5V36.375L20.208 44.4583Z" fill="#EB4074"/>
</svg>
