<svg width="60" height="60" viewBox="0 0 60 60" fill="none" xmlns="http://www.w3.org/2000/svg">
<path d="M56.0621 22.8023C55.835 22.1025 55.4071 21.4848 54.8315 21.0264C54.256 20.568 53.5583 20.289 52.8254 20.2242L38.9059 19.0242L33.4496 6.04921C33.1655 5.36839 32.6864 4.78684 32.0724 4.37778C31.4585 3.96873 30.7373 3.75046 29.9996 3.75046C29.2619 3.75046 28.5407 3.96873 27.9268 4.37778C27.3128 4.78684 26.8337 5.36839 26.5496 6.04921L21.1098 19.0242L7.17382 20.2289C6.43744 20.2903 5.7356 20.5679 5.15644 21.0268C4.57728 21.4857 4.1466 22.1055 3.9185 22.8083C3.69039 23.5112 3.67502 24.2657 3.87431 24.9773C4.0736 25.6889 4.47867 26.3257 5.03866 26.8078L15.6113 36.0469L12.4426 49.7672C12.275 50.4852 12.3228 51.2366 12.58 51.9276C12.8372 52.6186 13.2924 53.2184 13.8887 53.6521C14.4849 54.0857 15.1958 54.334 15.9324 54.3659C16.6689 54.3978 17.3986 54.2118 18.0301 53.8312L29.9832 46.5656L41.9621 53.8312C42.5936 54.2118 43.3232 54.3978 44.0598 54.3659C44.7964 54.334 45.5073 54.0857 46.1035 53.6521C46.6998 53.2184 47.1549 52.6186 47.4121 51.9276C47.6693 51.2366 47.7172 50.4852 47.5496 49.7672L44.3832 36.0328L54.9535 26.8078C55.5126 26.3238 55.9162 25.6854 56.1134 24.9727C56.3107 24.26 56.2928 23.5049 56.0621 22.8023ZM52.4949 23.9742L41.9246 33.1992C41.4102 33.6467 41.0274 34.226 40.8177 34.8748C40.6079 35.5236 40.5789 36.2173 40.734 36.8812L43.9098 50.625L31.9402 43.3594C31.3563 43.0037 30.6857 42.8156 30.0019 42.8156V7.52108L35.4394 20.4773C35.7035 21.107 36.1345 21.6526 36.6859 22.0553C37.2373 22.458 37.8882 22.7025 38.5684 22.7625L52.4996 23.9672V23.9836L52.4949 23.9742Z" fill="#EB4074"/>
</svg>
