<svg width="97" height="97" viewBox="0 0 97 97" fill="none" xmlns="http://www.w3.org/2000/svg">
<g clip-path="url(#clip0_134_379)">
<path fill-rule="evenodd" clip-rule="evenodd" d="M89.5033 11.2451C89.5033 12.7218 89.2124 14.1841 88.6473 15.5484C88.0822 16.9127 87.2539 18.1523 86.2097 19.1965C85.1655 20.2407 83.9258 21.069 82.5615 21.6342C81.1972 22.1993 79.7349 22.4901 78.2582 22.4901C76.7815 22.4901 75.3192 22.1993 73.9549 21.6342C72.5906 21.069 71.3509 20.2407 70.3067 19.1965C69.2625 18.1523 68.4342 16.9127 67.8691 15.5484C67.304 14.1841 67.0131 12.7218 67.0131 11.2451C67.0131 8.26269 68.1979 5.40246 70.3067 3.2936C72.4156 1.18475 75.2758 0 78.2582 0C81.2406 0 84.1008 1.18475 86.2097 3.2936C88.3185 5.40246 89.5033 8.26269 89.5033 11.2451ZM96.5981 46.1443C96.3399 47.2966 95.6969 48.3266 94.775 49.0646C93.8531 49.8027 92.7073 50.2047 91.5264 50.2044H49.179C47.8008 50.2044 46.4791 49.6569 45.5046 48.6824C44.53 47.7079 43.9826 46.3862 43.9826 45.008C43.9826 43.6298 44.53 42.3081 45.5046 41.3336C46.4791 40.3591 47.8008 39.8116 49.179 39.8116H60.237C61.4886 35.4723 64.2645 31.7307 68.0542 29.2745C71.844 26.8182 76.393 25.8124 80.865 26.442C85.3371 27.0716 89.4316 29.2943 92.3959 32.7014C95.3602 36.1085 96.9951 40.4711 97 44.9872C96.9997 45.4071 96.8581 45.8146 96.5981 46.1443ZM9.41593 23.0306C9.41593 26.3584 10.7379 29.55 13.091 31.9031C15.4442 34.2562 18.6357 35.5782 21.9636 35.5782C25.2914 35.5782 28.483 34.2562 30.8361 31.9031C33.1892 29.55 34.5112 26.3584 34.5112 23.0306C34.5112 19.7027 33.1892 16.5112 30.8361 14.158C28.483 11.8049 25.2914 10.4829 21.9636 10.4829C18.6357 10.4829 15.4442 11.8049 13.091 14.158C10.7379 16.5112 9.41593 19.7027 9.41593 23.0306ZM0 62.4888C-4.29794e-08 59.6045 0.568104 56.7484 1.67188 54.0837C2.77565 51.4189 4.39348 48.9977 6.43298 46.9582C8.47249 44.9187 10.8937 43.3009 13.5585 42.1971C16.2232 41.0933 19.0793 40.5252 21.9636 40.5252C24.8479 40.5252 27.7039 41.0933 30.3687 42.1971C33.0334 43.3009 35.4547 44.9187 37.4942 46.9582C39.5337 48.9977 41.1515 51.4189 42.2553 54.0837C43.359 56.7484 43.9271 59.6045 43.9271 62.4888V68.4335C43.9271 69.3523 43.5622 70.2334 42.9125 70.8831C42.2628 71.5328 41.3816 71.8978 40.4629 71.8978H34.5043L31.7467 93.9653C31.642 94.803 31.2351 95.5736 30.6022 96.1324C29.9694 96.6913 29.1544 96.9998 28.3101 97H15.6101C14.7659 96.9998 13.9508 96.6913 13.318 96.1324C12.6852 95.5736 12.2782 94.803 12.1735 93.9653L9.409 71.8978H3.46429C2.5455 71.8978 1.66435 71.5328 1.01467 70.8831C0.364986 70.2334 0 69.3523 0 68.4335V62.4888Z" fill="#EB4074"/>
</g>
<defs>
<clipPath id="clip0_134_379">
<rect width="97" height="97" fill="white"/>
</clipPath>
</defs>
</svg>
