<svg width="60" height="60" viewBox="0 0 60 60" fill="none" xmlns="http://www.w3.org/2000/svg">
<g clip-path="url(#clip0_99_562)">
<path fill-rule="evenodd" clip-rule="evenodd" d="M23.0786 22.4657L29.0957 17.0229C30.4796 15.7735 32.1186 14.8401 33.8991 14.2873C35.6796 13.7345 37.5591 13.5755 39.4071 13.8214L47.37 14.8757L58.4186 8.90572C58.5818 8.81736 58.7652 8.77293 58.9508 8.77678C59.1364 8.78064 59.3178 8.83264 59.4772 8.9277C59.6367 9.02276 59.7687 9.15761 59.8603 9.31904C59.952 9.48047 60.0001 9.66295 60 9.84857V30.1543C59.9999 30.8356 59.8373 31.5072 59.5257 32.1131C59.2142 32.7191 58.7626 33.242 58.2086 33.6386L50.7686 38.9571L42.7114 32.2029C44.283 31.6378 45.7007 30.7132 46.8514 29.5029C47.096 29.2496 47.2882 28.9506 47.4172 28.6231C47.5462 28.2955 47.6095 27.9457 47.6033 27.5937C47.5971 27.2417 47.5217 26.8944 47.3813 26.5716C47.2409 26.2487 47.0383 25.9567 46.785 25.7121C46.5317 25.4676 46.2328 25.2753 45.9052 25.1463C45.5777 25.0173 45.2279 24.9541 44.8759 24.9603C44.5239 24.9664 44.1766 25.0419 43.8537 25.1823C43.5309 25.3227 43.2388 25.5253 42.9943 25.7786C42.2014 26.6057 41.28 27.1371 40.2 27.3471C39.2614 27.5314 38.0657 27.5014 36.5614 27.0386L34.65 25.4314L29.3143 29.7557C28.3409 30.5265 27.1067 30.8902 25.8709 30.7703C24.6351 30.6504 23.4938 30.0564 22.6867 29.1128C21.8797 28.1693 21.4696 26.9497 21.5427 25.7103C21.6157 24.4708 22.1662 23.3079 23.0786 22.4657ZM19.4871 18.4886L23.8071 14.5843C21.9499 14.0776 20.004 13.9854 18.1071 14.3143L10.2429 15.6771L1.61143 11.0314C1.44478 10.9416 1.25764 10.8966 1.06836 10.9008C0.87908 10.9051 0.694149 10.9584 0.531687 11.0556C0.369226 11.1529 0.234808 11.2906 0.141603 11.4554C0.0483979 11.6202 -0.00039591 11.8064 2.4194e-06 11.9957V30.15C2.4194e-06 31.5986 0.715717 32.9529 1.91143 33.7671L25.29 49.7057C26.7678 50.7128 28.5186 51.2432 30.3069 51.2256C32.0952 51.2079 33.8352 50.6432 35.2929 49.6071L46.0329 41.9829L34.59 32.3829L32.6829 33.9171C30.6252 35.5709 28.0046 36.3585 25.3762 36.1132C22.7478 35.868 20.3181 34.609 18.602 32.6031C16.8859 30.5973 16.0181 28.0021 16.1825 25.3674C16.3469 22.7327 17.5349 20.2655 19.4871 18.4886Z" fill="#EB4074"/>
</g>
<defs>
<clipPath id="clip0_99_562">
<rect width="60" height="60" fill="white"/>
</clipPath>
</defs>
</svg>
