<svg width="1807" height="1017" viewBox="0 0 1807 1017" fill="none" xmlns="http://www.w3.org/2000/svg">
<g opacity="0.85">
<g style="mix-blend-mode:overlay">
<path d="M1806.42 944.806L1508.7 999.719L1482.06 1015.94" stroke="#8A1480" stroke-opacity="0.1" stroke-linecap="round" stroke-linejoin="round"/>
</g>
<g style="mix-blend-mode:overlay">
<path d="M1806.42 753.766L1570.75 809.205L1252.38 871.787L1028.45 979.359L945.427 1015.94" stroke="#8A1480" stroke-opacity="0.1" stroke-linecap="round" stroke-linejoin="round"/>
</g>
<g style="mix-blend-mode:overlay">
<path d="M1806.42 613.156L1618.37 666.375L1345.01 733.407L1157.44 825.843L876.951 870.618L659.278 950.889L462.311 1015.94" stroke="#8A1480" stroke-opacity="0.1" stroke-linecap="round" stroke-linejoin="round"/>
</g>
<g style="mix-blend-mode:overlay">
<path d="M1806.42 341.071L1662.71 401.661L1641.07 410.786L1490.67 468.669L1468.79 477.089L1320.23 528.46L1291.52 538.384L1144 583.85L1115.41 592.665L941.74 639.11L777.072 676.549L622.495 704.745L483.339 723.71L437.121 732.095L355.395 746.92L311.718 753.182L226.652 765.36L98.3147 778.241L6.83244 763.928L1 762.235" stroke="#8A1480" stroke-opacity="0.1" stroke-linecap="round" stroke-linejoin="round"/>
</g>
<g style="mix-blend-mode:overlay">
<path d="M1806.42 504.272L1645.34 557.276L1411.41 625.62L1176.52 685.101L948.813 733.741L731.796 770.691L533.291 795.381L355.228 808.071L202.738 809.813L75.295 801.702L1 807.606" stroke="#8A1480" stroke-opacity="0.1" stroke-linecap="round" stroke-linejoin="round"/>
</g>
<g style="mix-blend-mode:overlay">
<path d="M1806.42 415.926L1652.89 473.595L1450.88 541.771L1247.57 602.803L1045.19 655.486L851.177 698.233L667.735 730.52L501.397 752.121L353.046 763.38L226.652 765.36L121.299 759.003L6.83244 763.929L1 763.905" stroke="#8A1480" stroke-opacity="0.1" stroke-linecap="round" stroke-linejoin="round"/>
</g>
<g style="mix-blend-mode:overlay">
<path d="M1806.42 208.988L1707.85 264.617L1697.67 270.366L1591.71 325.756L1576.36 333.771L1465.35 387.73L1450.87 394.767L1341.54 443.383L1319.89 453.02L1209.84 497.95L1188.34 506.729L1087.18 543.858L1055.49 555.487L960.168 586.94L926.617 598.008L849.709 620.121L801.285 634.052L739.275 649.439L712.128 656.177L684.242 663.095L611.021 680.008L609.375 680.378L582.538 686.58L547.353 693.379L481.92 706.022L476.231 707.119L467.726 708.395L425.289 714.776L365.522 723.757L254.49 736.15L144.139 743.533L68.0909 732.095L9.95738 715.587L1 711.305" stroke="#8A1480" stroke-opacity="0.1" stroke-linecap="round" stroke-linejoin="round"/>
</g>
<g style="mix-blend-mode:overlay">
<path d="M1806.42 796.597L1717.05 861.852L1367 928.68L1203.47 1015.94" stroke="#8A1480" stroke-opacity="0.1" stroke-linecap="round" stroke-linejoin="round"/>
</g>
<g style="mix-blend-mode:overlay">
<path d="M1806.42 305.885L1707.82 351.817L1550.17 419.075L1409.98 473.726L1388.44 482.123L1339.26 499.346L1251.75 529.987L1222.84 540.101L1088.24 582.193L1059.41 591.21L936.039 624.701L898.957 634.768L747.576 669.822L605.856 696.205L480.894 713.75L478.604 714.072L430.835 721.992L359.665 733.812L315.618 739.43L240.19 749.055L121.299 759.003L38.0461 746.169L1 735.458" stroke="#8A1480" stroke-opacity="0.1" stroke-linecap="round" stroke-linejoin="round"/>
</g>
<g style="mix-blend-mode:overlay">
<path d="M1806.42 176.772L1729.29 223.825L1718.28 230.552L1620.63 286.599L1610.82 292.216L1511.42 345.019L1496.24 353.081L1392.76 404.285L1378.55 411.31L1278.3 456.682L1256.29 466.653L1156.49 508.208L1134.23 517.475L1045.91 550.538L1011.4 563.467L931.888 590.303L892.731 603.519L838.963 619.346L826.129 623.127L777.442 637.464L755.782 642.998L669.93 664.92L574.917 685.173L566.198 686.544L486.238 699.986L485.534 700.106L482.767 699.676L480.715 699.998L476.815 700.618L476.541 700.642L467.726 701.549L456.562 702.694L454.797 702.873L454.511 703.064L454.201 703.254L443.681 704.483L429.106 705.843L413.04 707.155L412.992 707.167L410.631 707.405L409.664 707.99L406.79 708.789L396.592 710.148L379.596 710.983L360.262 711.174L351.066 711.675L342.084 712.605L299.075 715.074L229.932 712.725L214.785 710.959L173.707 706.189L128.932 695.716L108.453 691.291L67.7928 682.489L12.9392 665.922L1 661.223" stroke="#8A1480" stroke-opacity="0.1" stroke-linecap="round" stroke-linejoin="round"/>
</g>
<g style="mix-blend-mode:overlay">
<path d="M1644.51 194.985L1569.78 247.084L1563.75 251.282L1497.93 294.018L1476.94 307.638L1415.01 345.615L1387.69 362.373L1308.7 407.112L1293.58 415.676L1213.34 458.208L1198.67 465.973L1128.93 499.739L1110.71 508.554L1100.9 513.313L1045.09 538.276L1040.82 540.197L1004.51 556.442" stroke="#8A1480" stroke-opacity="0.1" stroke-linecap="round" stroke-linejoin="round"/>
</g>
<g style="mix-blend-mode:overlay">
<path d="M475.789 702.694L456.658 704.531L451.303 705.521L442.953 707.083L418.18 709.302L396.592 710.148L380.598 711.842L351.137 714.156L347.917 714.406L327.235 716.029L284.261 719.392L188.628 722.445L96.8476 721.348L9.95738 715.587L1 714.514" stroke="#8A1480" stroke-opacity="0.1" stroke-linecap="round" stroke-linejoin="round"/>
</g>
<g style="mix-blend-mode:overlay">
<path d="M1806.42 109.371L1728.98 164.714L1649.92 218.446L1643.51 222.812L1551.32 281.267L1464.89 332.948L1455.9 338.315L1370.01 385.798L1355 394.099L1312.57 428.724L1256.29 466.653L1188.34 506.729L1105.18 548.856L1009.53 591.746L898.957 634.768L777.072 676.549L642.998 716.076L501.397 752.12L455.918 761.758L352.891 783.585L202.738 809.813L52.3589 829.97L1 821.847" stroke="#8A1480" stroke-opacity="0.1" stroke-linecap="round" stroke-linejoin="round"/>
</g>
<g style="mix-blend-mode:overlay">
<path d="M1565.8 225.949L1495.52 276.341L1489.94 280.361L1428.25 321.522L1408.63 334.618L1351.53 370.638L1333.75 381.862L1325.5 387.062L1266.25 421.532L1241.83 435.737L1237.99 437.968L1191.38 463.373L1152.54 484.532L1150.09 485.88L1106.42 507.158L1096.52 511.81" stroke="#8A1480" stroke-opacity="0.1" stroke-linecap="round" stroke-linejoin="round"/>
</g>
<g style="mix-blend-mode:overlay">
<path d="M1806.42 143.638L1729.13 195.057L1655.14 241.013L1631.76 255.528L1539.66 309.416L1530.27 314.902L1437.57 365.068L1422.49 373.227L1326.63 421.627L1312.57 428.724L1221.61 470.72L1198.81 481.264L1109.83 519.133L1085.87 529.331L1012.62 557.372L994.376 564.361L990.547 565.816L972.453 572.746L916.646 592.056L911.35 593.893L863.211 610.544L852.119 613.895" stroke="#8A1480" stroke-opacity="0.1" stroke-linecap="round" stroke-linejoin="round"/>
</g>
<g style="mix-blend-mode:overlay">
<path d="M1806.42 841.36L1717.05 861.851L1508.7 999.719L1395.64 1015.94" stroke="#8A1480" stroke-opacity="0.1" stroke-linecap="round" stroke-linejoin="round"/>
</g>
<g style="mix-blend-mode:overlay">
<path d="M1806.42 341.798L1739.84 404.488L1556.71 474.119L1395.94 529.033L1367.33 538.813L1177.95 596.398L990.332 645.884L811.471 685.9L642.998 716.076L490.818 736.293L355.395 746.92L240.19 749.055L144.139 743.533L38.0461 746.169L1 745.25" stroke="#8A1480" stroke-opacity="0.1" stroke-linecap="round" stroke-linejoin="round"/>
</g>
<g style="mix-blend-mode:overlay">
<path d="M388.982 709.624L378.653 710.256L360.262 711.174L351.066 711.675L341.977 712.474L325.136 713.488L299.075 715.074L209.823 716.291L124.173 713.619L43.1391 706.546L1 700.511" stroke="#8A1480" stroke-opacity="0.1" stroke-linecap="round" stroke-linejoin="round"/>
</g>
<g style="mix-blend-mode:overlay">
<path d="M313.34 713.19L305.515 713.154L229.932 712.725L227.284 712.594L149.864 708.646L74.1262 700.404L4.5901 688.775L1 687.904" stroke="#8A1480" stroke-opacity="0.1" stroke-linecap="round" stroke-linejoin="round"/>
</g>
<g style="mix-blend-mode:overlay">
<path d="M1490.34 237.912L1426.24 289.616L1385.3 321.092L1365.02 336.705L1360.38 340.271L1322.44 367.275L1299.24 383.794L1289.91 390.426L1242.44 422.355L1226.34 433.185L1218.29 438.588L1174.31 465.711L1172.41 466.88L1147.67 482.135L1142.85 485.104L1131.95 491.39" stroke="#8A1480" stroke-opacity="0.1" stroke-linecap="round" stroke-linejoin="round"/>
</g>
<g style="mix-blend-mode:overlay">
<path d="M177.369 162.984L96.2751 165.06L45.9778 167.672L23.3279 168.853L2.93221 170.487L1 171.214" stroke="#8A1480" stroke-opacity="0.1" stroke-linecap="round" stroke-linejoin="round"/>
</g>
<g style="mix-blend-mode:overlay">
<path d="M1425.13 272.322L1371.52 317.371L1365.59 322.357L1343.88 339.723L1319.47 359.26L1308.62 367.931L1304.53 371.211L1275.02 392.954L1248.5 412.503L1239.08 419.457L1200.57 446.198L1196.96 448.702L1182.36 458.852L1172.53 465.675L1156.35 475.932" stroke="#8A1480" stroke-opacity="0.1" stroke-linecap="round" stroke-linejoin="round"/>
</g>
<g style="mix-blend-mode:overlay">
<path d="M1806.42 650.536L1744.88 695.907L1448.78 767.113L1157.45 825.843L945.081 919.424L712.523 1012.5L649.284 1015.94" stroke="#8A1480" stroke-opacity="0.1" stroke-linecap="round" stroke-linejoin="round"/>
</g>
<g style="mix-blend-mode:overlay">
<path d="M248.658 711.544L239.891 710.924L214.045 709.075L173.707 706.189L102.764 696.885L37.6287 684.409L1 674.414" stroke="#8A1480" stroke-opacity="0.1" stroke-linecap="round" stroke-linejoin="round"/>
</g>
<g style="mix-blend-mode:overlay">
<path d="M249.923 161.446L176.439 161.756L110.409 163.855" stroke="#8A1480" stroke-opacity="0.1" stroke-linecap="round" stroke-linejoin="round"/>
</g>
<g style="mix-blend-mode:overlay">
<path d="M1366.2 307.388L1316.42 351.066L1311.02 355.801L1292.12 371.545L1267.67 391.905L1257.81 400.111L1254.38 402.961L1217.67 430.943L1215.92 432.267L1204.9 440.675L1193.41 449.43" stroke="#8A1480" stroke-opacity="0.1" stroke-linecap="round" stroke-linejoin="round"/>
</g>
<g style="mix-blend-mode:overlay">
<path d="M1806.42 376.745L1739.84 404.488L1652.89 473.595L1543.1 547.747L1411.41 625.62L1255.21 706.475L1077.27 788.558L876.951 870.618L617.068 900.365L381.886 915.19L178.478 916.061L7.24989 904.36L1 905.231" stroke="#8A1480" stroke-opacity="0.1" stroke-linecap="round" stroke-linejoin="round"/>
</g>
<g style="mix-blend-mode:overlay">
<path d="M1313.51 343.218L1283.22 370.96L1267.21 385.619L1262.29 390.128L1224.25 421.747L1217.76 426.184L1207.41 435.785" stroke="#8A1480" stroke-opacity="0.1" stroke-linecap="round" stroke-linejoin="round"/>
</g>
<g style="mix-blend-mode:overlay">
<path d="M1791.61 1L1741.57 48.0889L1685.92 98.9588L1625.03 151.498L1561.67 204.098L1492.98 257.496L1440.25 296.582L1422.14 310.012L1364.48 349.706L1346.34 362.194L1293.98 396.27L1269.13 412.432L1216.14 444.17L1205.7 450.42L1190.48 459.532L1187.91 461.083L1154.05 480.059L1137.96 489.088L1117.43 500.586L1106.46 506.741L1096.17 512L1055.49 532.718L999.194 558.577L933.343 585.055L852.118 613.895L757.058 642.604L669.929 664.92L569.299 685.9L486.535 699.068L486.309 699.104L486.154 699.128L486.082 699.151L485.533 700.106L475.789 702.694L456.693 705.246L451.302 705.521L429.237 706.666L413.147 708.049L409.664 707.99L396.27 708.884L388.982 709.624L379.595 710.983L342.084 712.605L323.573 712.713L313.339 713.19L305.443 712.999L287.493 712.534L270.401 712.104L263.77 711.938L257.4 711.771L254.419 711.496L239.653 710.363L225.912 709.17L217.539 708.3L216.895 708.24L213.52 707.727L210.872 707.238L195.45 705.998L189.999 704.948L183.928 703.254L179.515 701.501L176.688 700.988L176.152 700.893L172.407 699.748L169.556 697.887L164.869 695.907L163.712 695.418L163.068 694.929L160.706 694.058L158.499 693.832L155.828 693.975L147.49 692.484L119.163 684.851L104.23 679.436L70.6788 667.258L60.2067 662.404L28.3489 647.626L21.4072 628.375L21.0255 608.945L26.6791 589.051L14.8114 563.658L8.88358 537.763L7.66699 512.167L11.2452 486.81L18.1749 462.276L28.3608 438.505L40.3477 415.914L53.9091 394.374L67.6851 374.181L81.4491 355.181L93.9489 337.528L104.922 321.104L113.307 305.981L118.817 292.061L172.86 279.669L223.992 268.744L272.131 259.106L317.263 250.602L359.51 243.028L398.607 236.313L434.854 230.254L467.726 224.827L497.64 219.866L523.772 215.357L546.625 211.147L565.077 207.282L579.699 203.609L589.074 200.198L594.871 196.226L609.136 200.615L619.882 205.195L629.09 212.316L631.178 212.554L634.338 216.55L637.356 223.384L638.871 227.666L635.579 235.645L633.599 238.234L628.971 243.863L628.208 244.46L625.846 246.654L618.177 252.415L614.253 255.302L604.794 261.265L600.608 263.877L591.042 269.328L584.637 272.787L569.979 278.918L548.259 285.382L523.128 293.505L494.968 302.2L464.959 311.419L433.137 321.259L400.325 331.672L366.607 342.729L332.495 354.381L298.144 366.702L263.722 379.667L229.55 393.312L195.486 407.696L162.042 422.808L128.92 438.803L96.8353 455.596L65.4666 473.463L35.8034 492.213L31.3426 517.773L31.7362 543.5L36.7934 569.49L47.683 594.919L44.1168 614.05L46.371 632.49L54.732 650.572L70.6788 667.258L94.9985 682.739L128.932 695.716L165.954 701.441L183.451 702.813L184.274 701.644L184.525 702.038L189.689 703.314L192.802 703.624L201.616 705.306L211.194 707.369L213.52 707.727L214.665 707.787L214.701 707.799L225.769 708.824L239.653 710.363L248.658 711.544L254.502 711.699L257.4 711.771" stroke="#8A1480" stroke-opacity="0.1" stroke-linecap="round" stroke-linejoin="round"/>
</g>
<g style="mix-blend-mode:overlay">
<path d="M1629.18 75.2115L1582.06 123.779L1533.32 172.634L1480.05 222.669L1425.13 272.322L1426.24 289.616L1422.14 310.012L1408.63 334.618L1387.69 362.373L1355 394.099L1266.84 439.638L1252.71 446.949L1198.81 481.264L1134.23 517.475L1055.49 555.487L965.404 594.06L861.565 632.597L747.576 669.822L622.495 704.745L490.818 736.293L445.232 745.25L353.046 763.38L309.177 770.345L214.105 785.445L75.295 801.702L1 789.99" stroke="#8A1480" stroke-opacity="0.1" stroke-linecap="round" stroke-linejoin="round"/>
</g>
<g style="mix-blend-mode:overlay">
<path d="M232.878 160.456L167.803 161.505" stroke="#8A1480" stroke-opacity="0.1" stroke-linecap="round" stroke-linejoin="round"/>
</g>
<g style="mix-blend-mode:overlay">
<path d="M1554.81 115.049L1511.18 162.71L1466.19 210.455L1416.95 259.19L1366.2 307.388L1365.59 322.357L1360.38 340.271L1346.34 362.194L1325.5 387.062L1293.58 415.676L1252.71 446.949L1171.58 485.26L1147.15 496.805L1070.8 530.094L1057.11 536.07L1046.01 540.912L1042.8 542.308L992.478 562.035L986.944 564.206L938.114 583.349L933.343 585.055" stroke="#8A1480" stroke-opacity="0.1" stroke-linecap="round" stroke-linejoin="round"/>
</g>
<g style="mix-blend-mode:overlay">
<path d="M1806.42 678.815L1744.88 695.907L1570.75 809.205L1367 928.68L1028.45 979.359L712.522 1012.51L703.063 1015.94" stroke="#8A1480" stroke-opacity="0.1" stroke-linecap="round" stroke-linejoin="round"/>
</g>
<g style="mix-blend-mode:overlay">
<path d="M1806.42 435.272L1758.45 475.956L1543.1 547.746L1325.01 612.345L1106.95 668.355L896.715 713.977L697.148 748.542L606.584 760.052L515.412 771.633L352.891 783.585L214.105 785.445L98.3147 778.241L1 784.193" stroke="#8A1480" stroke-opacity="0.1" stroke-linecap="round" stroke-linejoin="round"/>
</g>
<g style="mix-blend-mode:overlay">
<path d="M1 176.343L62.4613 173.683L134.347 172.681L196.154 173.671L247.883 176.45L291.274 180.589L326.185 185.98L353.988 192.349L374.562 199.649L389.054 207.7L397.379 216.538L400.564 226.056L398.608 236.313L392.406 247.263L382.077 259.023L368.432 271.558L351.686 285L332.578 299.349L311.443 314.699L271.749 325.183L230.719 336.61L188.258 349.098L144.664 362.754L99.6863 377.83L53.9094 394.374L7.08291 412.73L1 425.969" stroke="#8A1480" stroke-opacity="0.1" stroke-linecap="round" stroke-linejoin="round"/>
</g>
<g style="mix-blend-mode:overlay">
<path d="M1266.35 373.572L1242.86 399.216L1237.82 403.534L1233.39 407.589" stroke="#8A1480" stroke-opacity="0.1" stroke-linecap="round" stroke-linejoin="round"/>
</g>
<g style="mix-blend-mode:overlay">
<path d="M1806.42 534.782L1759.57 571.052L1508.41 643.332L1255.21 706.475L1008.49 758.287L772.457 797.73L555.595 824.066L360.452 837.52L192.803 839.094L52.3589 829.97L1 835.027" stroke="#8A1480" stroke-opacity="0.1" stroke-linecap="round" stroke-linejoin="round"/>
</g>
<g style="mix-blend-mode:overlay">
<path d="M368.646 164.463L316.238 161.816L312.099 161.613L291.465 161.279L245.199 160.527L213.759 160.921" stroke="#8A1480" stroke-opacity="0.1" stroke-linecap="round" stroke-linejoin="round"/>
</g>
<g style="mix-blend-mode:overlay">
<path d="M1806.42 272.763L1756.31 298.24L1615.26 364.818L1488.08 419.755L1466.58 429.046L1336.45 480.477L1329.02 483.411L1315.14 488.897L1190.2 533.255L1160.84 543.679L1039.02 582.383L1009.53 591.746L900.555 621.839L861.565 632.597L722.565 665.445L592.689 690.206L481.872 706.308L476.231 707.119L457.767 708.789L397.63 714.239L372.63 716.494L324.611 721.074L269.28 726.346L166.646 731.439L68.0909 732.095L1 729.041" stroke="#8A1480" stroke-opacity="0.1" stroke-linecap="round" stroke-linejoin="round"/>
</g>
<g style="mix-blend-mode:overlay">
<path d="M1806.42 458.161L1758.45 475.956L1645.34 557.276L1508.41 643.332L1345.01 733.407L1077.27 788.558L820.261 830.614L583.111 858.643L369.076 872.825L184.561 874.137L29.6255 863.855L1 867.231" stroke="#8A1480" stroke-opacity="0.1" stroke-linecap="round" stroke-linejoin="round"/>
</g>
<g style="mix-blend-mode:overlay">
<path d="M1806.42 555.857L1759.57 571.052L1618.38 666.375L1448.78 767.113L1252.37 871.787L945.08 919.424L659.279 950.889L400.087 966.203L217.087 1015.94" stroke="#8A1480" stroke-opacity="0.1" stroke-linecap="round" stroke-linejoin="round"/>
</g>
<g style="mix-blend-mode:overlay">
<path d="M1743.41 1L1709.37 36.1616L1659.04 85.5406L1606.71 135.444L1549.52 186.779L1490.34 237.912L1492.98 257.496L1489.94 280.361L1476.94 307.638L1455.9 338.315L1422.49 373.227L1378.55 411.31L1319.89 453.02L1248.53 497.163L1160.84 543.679L1059.41 591.21L941.74 639.11L811.471 685.9L667.735 730.52L566.735 757.786L515.412 771.633L355.228 808.071L192.803 839.094L29.6255 863.855L1 859.311" stroke="#8A1480" stroke-opacity="0.1" stroke-linecap="round" stroke-linejoin="round"/>
</g>
<g style="mix-blend-mode:overlay">
<path d="M1806.42 31.6292L1770.54 63.2485L1706.27 116.885L1638.95 170.892L1565.8 225.949L1563.75 251.282L1551.32 281.267L1530.27 314.902L1496.24 353.081L1450.87 394.767L1389.91 440.425L1327.43 480.93L1315.14 488.897L1222.84 540.101L1115.41 592.665L990.332 645.884L851.177 698.233L697.148 748.542L648.544 762.438L533.291 795.381L360.452 837.52L184.561 874.137L7.24989 904.36L1 903.37" stroke="#8A1480" stroke-opacity="0.1" stroke-linecap="round" stroke-linejoin="round"/>
</g>
<g style="mix-blend-mode:overlay">
<path d="M359.665 222.573L318.194 229.443L273.395 237.22L225.042 246.106L173.29 256.244L118.102 267.849L59.4079 281.124L1 295.401" stroke="#8A1480" stroke-opacity="0.1" stroke-linecap="round" stroke-linejoin="round"/>
</g>
<g style="mix-blend-mode:overlay">
<path d="M1 201.128L42.8528 201.462L91.0629 203.871L131.079 207.795L162.984 213.186L187.936 219.758L206.125 227.511L218.387 236.289L225.042 246.106L226.76 256.912L223.992 268.744L217.265 281.601L207.211 295.532L194.246 310.585L145.249 323.263L93.9493 337.528L40.8013 353.487L1 366.44" stroke="#8A1480" stroke-opacity="0.1" stroke-linecap="round" stroke-linejoin="round"/>
</g>
<g style="mix-blend-mode:overlay">
<path d="M1088.15 73.5059L1076.16 66.9579L1052.64 54.1122L1015.42 36.9727L993.1 18.8074L983.653 1" stroke="#8A1480" stroke-opacity="0.1" stroke-linecap="round" stroke-linejoin="round"/>
</g>
<g style="mix-blend-mode:overlay">
<path d="M1 212.184L38.9884 213.783L78.7539 217.588L110.91 222.824L135.742 229.419L154.11 237.22L166.408 246.189L173.29 256.244L175.281 267.408L172.86 279.669L166.706 293.039L113.307 305.981L60.6722 319.757L57.4041 320.615L50.0569 336.419L1 351.268" stroke="#8A1480" stroke-opacity="0.1" stroke-linecap="round" stroke-linejoin="round"/>
</g>
<g style="mix-blend-mode:overlay">
<path d="M1696.87 1L1672.08 28.4685L1632.99 23.5426L1590.24 22.4333L1547.01 23.638L1501.73 28.1823L1479.88 67.8643L1455.34 109.407L1430.21 151.439L1401.94 195.033L1372.66 238.794L1339.66 283.688L1305.14 328.344L1266.35 373.572L1266.82 380.013L1262.29 390.128L1254.38 402.961L1239.08 419.457L1218.29 438.588L1187.91 461.083L1150.09 485.88L1100.9 513.312L1042.8 542.308L972.453 572.746L892.731 603.519L801.285 634.052L701.608 663.25L592.689 690.206L480.918 713.583L478.604 714.072L365.522 723.757L269.28 726.346L188.628 722.445L124.173 713.619L74.1262 700.404L37.6287 684.409L12.9392 665.922L1 649.761" stroke="#8A1480" stroke-opacity="0.1" stroke-linecap="round" stroke-linejoin="round"/>
</g>
<g style="mix-blend-mode:overlay">
<path d="M1806.42 216.061L1790.86 249.541L1678.48 307.448L1662.99 315.427L1544.56 372.105L1529.71 379.214L1411.42 431.014L1389.91 440.425L1319.54 468.669L1269.8 488.635L1248.53 497.163L1135.36 537.978L1105.18 548.856L996.248 584.089L965.404 594.06L871.453 620.503L829.159 632.394L745.894 652.54L701.608 663.25L594.489 684.242L582.538 686.58L486.226 701.108" stroke="#8A1480" stroke-opacity="0.1" stroke-linecap="round" stroke-linejoin="round"/>
</g>
<g style="mix-blend-mode:overlay">
<path d="M1471.97 1L1457.5 34.5872L1439.42 73.3509L1421.01 112.771L1386.31 119.164L1371.29 158.392L1353.54 199.267L1335.75 238.353L1334.76 240.536L1314.31 279.729L1312.52 283.152L1289.71 323.812L1288.55 325.851L1262.23 366.595L1260.37 369.469L1256.82 371.664L1252.08 379.178L1251.19 380.574" stroke="#8A1480" stroke-opacity="0.1" stroke-linecap="round" stroke-linejoin="round"/>
</g>
<g style="mix-blend-mode:overlay">
<path d="M494.348 177.476L460.677 171.023L457.707 169.878L456.503 169.532L447.677 168.34L422.462 166.527L410.022 165.37L369.648 163.843L365.677 166.443L355.765 169.067L306.088 165.394L246.607 163.283L177.369 162.984L176.438 161.756L167.803 161.505L110.409 163.855L92.3391 165.608L81.211 169.699L62.4613 173.683L35.9231 178.955L3.06341 185.396L1 185.801" stroke="#8A1480" stroke-opacity="0.1" stroke-linecap="round" stroke-linejoin="round"/>
</g>
<g style="mix-blend-mode:overlay">
<path d="M1 180.446L35.9231 178.955L106.616 177.882L134.347 172.681L155.959 168.435L170.069 165.263L236.623 165.883L292.717 168.352L340.14 172.228L378.761 177.357L410.034 183.428L433.734 190.381L451.159 198.027L462.073 206.364L467.655 215.286L467.726 224.827L463.385 234.942L429.201 240.81L392.406 247.263L352.664 254.467L310.31 262.47L265.153 271.475L217.265 281.601L166.706 293.039L157.224 307.567L145.249 323.263L131.115 340.224L115.836 358.377L99.6863 377.831L83.8469 398.477L68.5561 420.399L55.1379 443.347L18.1753 462.276L1 472.044" stroke="#8A1480" stroke-opacity="0.1" stroke-linecap="round" stroke-linejoin="round"/>
</g>
<g style="mix-blend-mode:overlay">
<path d="M1197.96 1L1168.67 19.2487L1146.91 38.5709L1135.13 58.2748L1134.26 77.8952L1144.24 98.2312L1162.66 113.653L1174.19 123.302L1190.3 138.689L1197.66 145.714L1201.38 148.922L1202.79 150.437L1202.95 150.652" stroke="#8A1480" stroke-opacity="0.1" stroke-linecap="round" stroke-linejoin="round"/>
</g>
<g style="mix-blend-mode:overlay">
<path d="M1125.81 93.8539L1122.74 91.5638L1117.95 87.1388L1098.11 73.327L1084.53 65.4908L1063.62 53.3965L1028.57 35.1359L1016.74 16.3981L984.714 1" stroke="#8A1480" stroke-opacity="0.1" stroke-linecap="round" stroke-linejoin="round"/>
</g>
<g style="mix-blend-mode:overlay">
<path d="M1458.03 1L1425.4 7.83433L1378.51 20.2745L1335.58 33.7165L1296.23 48.9715L1263.05 64.799L1236 81.9505L1217.07 99.4597L1206.34 118.138L1204.95 137.353L1219.91 159.203L1225.69 167.636L1237.14 188.306L1245.64 202.905L1249.32 208.57" stroke="#8A1480" stroke-opacity="0.1" stroke-linecap="round" stroke-linejoin="round"/>
</g>
<g style="mix-blend-mode:overlay">
<path d="M399.121 360.297L369.291 373.978L338.459 388.589L313.388 405.323L289.7 422.558L282.305 427.042L260.288 440.353L232.079 458.948L205.124 478.354L180.661 498.248L158.452 518.704L139.798 539.23L124.233 560.008L113.069 580.38L105.698 600.644L103.42 619.99" stroke="#8A1480" stroke-opacity="0.1" stroke-linecap="round" stroke-linejoin="round"/>
</g>
<g style="mix-blend-mode:overlay">
<path d="M425.205 346.283L395.446 358.95L364.34 372.463L338.458 388.589L307.149 404.094L276.245 420.423L253.106 439.471L224.6 457.684L197.501 476.636L172.955 495.982L158.451 518.704L147.442 541.365L139.189 564.111L134.68 586.26L132.915 608.051L134.728 628.709L138.926 648.604L146.142 666.864L155.1 684.04L162.876 694.679" stroke="#8A1480" stroke-opacity="0.1" stroke-linecap="round" stroke-linejoin="round"/>
</g>
<g style="mix-blend-mode:overlay">
<path d="M1197.15 145.284L1190.31 138.689L1174.19 123.302L1161.51 102.764L1153.92 95.8219L1134.26 77.8952L1106.09 55.1379L1077.27 33.967L1047.7 14.7879" stroke="#8A1480" stroke-opacity="0.1" stroke-linecap="round" stroke-linejoin="round"/>
</g>
<g style="mix-blend-mode:overlay">
<path d="M451.243 332.9L421.878 344.541L390.832 357.005L364.341 372.463L332.603 386.824L300.673 402.019L276.246 420.423L245.927 437.55L217.182 455.298L197.502 476.636L180.661 498.248L166.169 520.206L155.041 541.998L146.513 563.753L141.54 584.817L139.106 605.427L140.049 624.821L143.174 643.344L149.125 660.221L156.699 675.881L166.372 689.598L174.053 698.46" stroke="#8A1480" stroke-opacity="0.1" stroke-linecap="round" stroke-linejoin="round"/>
</g>
<g style="mix-blend-mode:overlay">
<path d="M1629.18 75.2115L1659.04 85.5406L1685.92 98.9588L1706.27 116.885L1721.89 138.355L1728.98 164.714L1729.13 195.057L1718.28 230.552L1697.67 270.366L1662.99 315.427L1615.26 364.818L1550.17 419.075L1468.79 477.089L1367.33 538.813L1247.57 602.803L1106.95 668.355L948.813 733.741L772.457 797.73L583.111 858.643L381.886 915.19L175.21 966.37L1 1003.64" stroke="#8A1480" stroke-opacity="0.1" stroke-linecap="round" stroke-linejoin="round"/>
</g>
<g style="mix-blend-mode:overlay">
<path d="M365.856 513.468L336.3 504.534L334.332 503.508L328.261 503.043L306.792 499.93L300.483 499.358L281.351 496.984L266.788 495.04L262.16 494.992L239.94 493.334L230.374 492.631L225.066 492.118" stroke="#8A1480" stroke-opacity="0.1" stroke-linecap="round" stroke-linejoin="round"/>
</g>
<g style="mix-blend-mode:overlay">
<path d="M1516.78 1L1501.73 28.1823L1457.5 34.5872L1413.18 43.7951L1400.83 80.543L1386.31 119.164L1354.33 127.167L1343.18 165.74L1331.2 204.921L1316.26 245.676L1300.75 284.344L1299.76 286.813L1282.99 321.832L1281.08 325.839L1279.46 329.227L1263.94 358.306L1263.61 358.938L1260.48 364.794L1259.22 369.386L1250.73 383.078L1249.44 384.903L1247.21 388.052L1240.35 397.749" stroke="#8A1480" stroke-opacity="0.1" stroke-linecap="round" stroke-linejoin="round"/>
</g>
<g style="mix-blend-mode:overlay">
<path d="M477.03 320.103L448.154 330.813L417.537 342.228L385.548 354.417L352.879 367.311L319.995 380.944L287.243 395.268L255.171 410.237L223.79 425.874L193.793 442.035L164.917 458.829L137.973 476.052L112.556 493.907L89.6557 512.084L68.8426 530.893L51.3215 549.917L36.794 569.49L26.6797 589.051" stroke="#8A1480" stroke-opacity="0.1" stroke-linecap="round" stroke-linejoin="round"/>
</g>
<g style="mix-blend-mode:overlay">
<path d="M1 192.54L31.6531 191.92L89.4885 192.743L138.39 195.283L178.359 199.41L221.118 192.135L258.57 185.944L291.274 180.589L318.278 176.081L340.14 172.228L355.765 169.067L397.296 173.91L430.477 179.826L456.718 186.529L475.73 193.983L488.826 202.034L495.72 210.694L497.64 219.866L494.336 229.61L486.965 239.903L475.336 250.829L460.534 262.386L442.452 274.695L422.081 287.744L399.443 301.663L375.362 316.453L350.064 332.221L314.509 343.146L278.381 354.775L241.74 367.156L204.801 380.347L167.397 394.493L129.994 409.593L92.3272 425.897L55.1379 443.347L43.7474 467.428L35.8038 492.213L7.66735 512.167L1 517.666" stroke="#8A1480" stroke-opacity="0.1" stroke-linecap="round" stroke-linejoin="round"/>
</g>
<g style="mix-blend-mode:overlay">
<path d="M501.922 307.96L474.131 317.729L443.979 328.189L412.432 339.317L379.751 351.149L346.581 363.661L313.268 376.852L280.098 390.7L247.537 405.18L215.524 420.315L184.692 436.024L154.731 452.412L126.415 469.337L99.3643 487.001L74.5436 505.166L51.5955 524.119L31.7366 543.5L14.8118 563.658L2.30007 584.029L1 587.476" stroke="#8A1480" stroke-opacity="0.1" stroke-linecap="round" stroke-linejoin="round"/>
</g>
<g style="mix-blend-mode:overlay">
<path d="M1651.13 1L1632.99 23.5426L1594.48 69.0094L1554.81 115.049L1523.11 110.325L1486.89 155.601L1446.91 202.309L1405.7 248.932L1360.35 296.391L1313.51 343.218L1311.02 355.801L1304.53 371.211L1289.91 390.426L1269.13 412.432L1237.99 437.968L1198.67 465.973L1147.15 496.805L1085.87 529.331L1011.4 563.467L926.617 598.008L829.159 632.394L722.565 665.445L605.856 696.205L483.339 723.71L359.665 733.812L254.49 736.15L166.646 731.439L96.8476 721.348L43.1391 706.546L4.5901 688.775L1 685.912" stroke="#8A1480" stroke-opacity="0.1" stroke-linecap="round" stroke-linejoin="round"/>
</g>
<g style="mix-blend-mode:overlay">
<path d="M1273.8 292.288L1273.99 288.781L1273.27 250.328L1269.33 213.735L1263.6 178.227L1278.08 163.295L1299.05 149.435L1324.32 137.675L1354.33 127.167L1363.19 90.383L1371.77 54.3627L1378.51 20.2745L1382.41 1" stroke="#8A1480" stroke-opacity="0.1" stroke-linecap="round" stroke-linejoin="round"/>
</g>
<g style="mix-blend-mode:overlay">
<path d="M1132 95.3567L1113.4 74.8776L1103.37 68.1267L1081.8 53.647L1049.58 34.0386L1016.74 16.3981" stroke="#8A1480" stroke-opacity="0.1" stroke-linecap="round" stroke-linejoin="round"/>
</g>
<g style="mix-blend-mode:overlay">
<path d="M214.057 505.118L205.243 515.972L204.348 517.177L200.198 522.759L188.437 538.586L185.217 543.727L173.731 562.047L161.35 586.415L159.716 591.138L152.882 611.009L148.29 635.913L149.125 660.221L155.101 684.04L160.36 693.45" stroke="#8A1480" stroke-opacity="0.1" stroke-linecap="round" stroke-linejoin="round"/>
</g>
<g style="mix-blend-mode:overlay">
<path d="M327.927 404.631L305.778 419.779L292.419 428.116L274.063 439.268L266.93 444.265L247.072 458.185L239.581 463.85L220.724 478.139L214.975 483.029L196.381 498.821L190.011 504.928L174.005 520.278L169.353 525.598L155.041 541.998L149.983 549.047L139.189 564.111L127.882 585.914L120.595 607.633L118.698 628.387L121.561 648.52L128.324 662.678L131.126 665.922L135.516 670.669L135.563 670.741L141.002 677.682L144.091 682.775L144.497 684.111L145.129 684.779L147.312 686.258" stroke="#8A1480" stroke-opacity="0.1" stroke-linecap="round" stroke-linejoin="round"/>
</g>
<g style="mix-blend-mode:overlay">
<path d="M1561.27 1L1547.01 23.638L1519.05 65.5624L1490.49 108.095L1458.72 152.333L1426.04 196.822L1389.68 242.587L1352.04 288.161L1310.25 334.439L1266.82 380.013L1235.78 409.521L1224.25 421.747L1211.15 434.294L1208.45 435.761L1192.32 449.191L1177.51 460.809" stroke="#8A1480" stroke-opacity="0.1" stroke-linecap="round" stroke-linejoin="round"/>
</g>
<g style="mix-blend-mode:overlay">
<path d="M1606.03 1L1590.24 22.4333L1558.36 65.4431L1523.11 110.325L1490.49 108.095L1455.34 109.407L1421.01 112.771L1399.96 153.944L1378.2 195.522L1353.2 238.556L1326.92 281.697L1296.73 325.875L1264.65 369.744L1246.05 392.251L1243.02 395.936L1237.82 403.534L1227.7 415.103L1217.76 426.184L1209.47 435.737L1193.44 449.406L1177.51 460.809L1156.35 475.932L1131.94 491.39L1096.17 512L1059.53 530.857" stroke="#8A1480" stroke-opacity="0.1" stroke-linecap="round" stroke-linejoin="round"/>
</g>
<g style="mix-blend-mode:overlay">
<path d="M213.448 707.536L204.3 684.063L199.219 659.481L197.418 635.221L198.468 611.426L201.306 588.466L205.266 566.496L209.369 545.731L212.756 526.277L214.593 508.41L214.629 508.327" stroke="#8A1480" stroke-opacity="0.1" stroke-linecap="round" stroke-linejoin="round"/>
</g>
<g style="mix-blend-mode:overlay">
<path d="M520.385 206.471L495.72 210.694L467.655 215.286L435.69 220.39L400.564 226.056L361.896 232.425L320.138 239.581L275.017 247.704L226.76 256.912L175.281 267.408L120.535 279.359L62.6998 292.992L1.52479 308.569L1 308.712" stroke="#8A1480" stroke-opacity="0.1" stroke-linecap="round" stroke-linejoin="round"/>
</g>
<g style="mix-blend-mode:overlay">
<path d="M546.971 220.164L522.508 224.684L494.336 229.61L463.385 234.942L454.511 245.724L442.13 257.138L426.208 269.316L407.673 282.257L386.609 296.069L363.828 310.775L339.58 326.46L302.951 337.135L265.523 348.561L227.284 360.822L188.461 374.002L148.874 388.267L108.99 403.641L68.5561 420.399L28.3612 438.505L1 452.018" stroke="#8A1480" stroke-opacity="0.1" stroke-linecap="round" stroke-linejoin="round"/>
</g>
<g style="mix-blend-mode:overlay">
<path d="M254.42 711.496L245.069 689.073L238.306 665.397L234.25 642.103L232.092 619.477L231.102 597.734L230.625 576.992L229.694 557.479L227.798 539.183L223.802 522.341L218.089 508.744L217.636 507.683L217.314 506.908L215.358 504.856L214.737 505.774L215.286 506.681L214.714 508.112L214.32 508.148L213.235 508.422L212.185 511.428L211.481 515.567L208.118 521.9L205.911 526.695L204.897 531.406L206.663 539.099L209.37 545.731L214.201 550.991L211.851 571.434L209.525 593.046L208.058 615.684L208.368 639.11L211.052 663.155L217.111 687.379L225.77 708.836" stroke="#8A1480" stroke-opacity="0.1" stroke-linecap="round" stroke-linejoin="round"/>
</g>
<g style="mix-blend-mode:overlay">
<path d="M1144.31 1L1125.36 15.7063L1110.22 35.3267L1106.09 55.1379L1113.4 74.8776L1133.7 90.2518L1144.24 98.2312L1162.32 116.885L1165.08 119.175L1165.11 119.199L1178.25 129.898L1197.66 145.714L1200.91 148.719" stroke="#8A1480" stroke-opacity="0.1" stroke-linecap="round" stroke-linejoin="round"/>
</g>
<g style="mix-blend-mode:overlay">
<path d="M439.244 538.908L418.812 527.613L416.475 525.025L396.854 518.358L394.206 517.535L385.344 515.137L378.104 513.11" stroke="#8A1480" stroke-opacity="0.1" stroke-linecap="round" stroke-linejoin="round"/>
</g>
<g style="mix-blend-mode:overlay">
<path d="M1236.26 188.449L1233.83 183.654L1225.69 167.636L1224.21 147.944L1206.34 118.138L1187.51 89.7509L1167.49 63.4632L1146.91 38.5709L1125.36 15.7063L1110.24 1" stroke="#8A1480" stroke-opacity="0.1" stroke-linecap="round" stroke-linejoin="round"/>
</g>
<g style="mix-blend-mode:overlay">
<path d="M548.522 290.26L526.683 299.802L502.781 311.038L478.127 322.774L452.746 335.083L426.184 346.903L399.121 360.297L373.346 374.861L348.31 389.949L324.146 405.49L301.448 421.365L280.098 437.503L260.824 453.676L251.544 461.143L236.23 473.499L220.76 490.424L215.262 497.449L213.103 501.242L208.642 507.373L196.786 523.153L188.437 538.586L182.975 552.947L179.718 566.329L179.182 578.304L180.732 588.979L184.704 598.032L190.548 605.582L198.468 611.426L208.058 615.684L219.341 618.344L232.091 619.477L246.165 619.215L261.504 617.628L277.773 614.969L295.043 611.235L312.779 606.799L331.123 601.622L349.36 596.088L367.668 590.136L385.142 584.161L402.007 578.042L417.167 572.162L430.847 566.377L441.868 561.034L450.396 556.012L455.25 551.587L455.847 547.103L452.948 544.657" stroke="#8A1480" stroke-opacity="0.1" stroke-linecap="round" stroke-linejoin="round"/>
</g>
<g style="mix-blend-mode:overlay">
<path d="M239.545 710.113L230.612 689.085L224.195 665.051L220.617 641.4L219.341 618.344L219.508 596.112L220.319 574.929L221.082 554.879L220.796 536.165L218.875 518.787L215.083 507.456L214.534 507.516L214.51 507.933L214.14 508.661L213.735 510.068L212.888 511.428L210.729 512.776L206.483 515.71L197.311 530.035L194.055 535.235L182.974 552.947L180.076 558.433L170.272 576.933L168.602 581.25L160.766 601.431L154.587 626.479L153.275 651.275L156.699 675.881L164.726 695.573" stroke="#8A1480" stroke-opacity="0.1" stroke-linecap="round" stroke-linejoin="round"/>
</g>
<g style="mix-blend-mode:overlay">
<path d="M1806.42 101.38L1792.89 83.0597L1770.54 63.2485L1741.57 48.0889L1709.37 36.1616L1672.08 28.4685L1629.18 75.2115L1594.48 69.0093L1558.36 65.4431L1519.04 65.5624L1479.88 67.8643L1439.42 73.3509L1400.83 80.543L1363.19 90.383L1329.41 101.475L1298.99 114.679L1274.45 128.813L1255.58 144.688L1244.25 161.422L1240.33 179.885L1244.85 199.482L1249.32 208.57L1254.62 219.353L1261.52 233.391L1266.65 248.753L1271.27 267.086L1271.3 267.265L1273.8 292.288L1272.84 314.759L1272.48 317.192L1268.07 338.435L1267.49 341.285L1266.76 343.695L1260.29 361.323L1255.92 372.225L1252.96 377.258L1251.19 380.574L1240.35 397.749L1233.39 407.589L1228.04 414.066L1225.6 418.037L1217.76 426.184L1213.07 430.752L1208.45 435.761L1199.18 443.812L1192.87 449.311L1172.53 465.675L1150.71 479.964L1142.85 485.104L1126.9 494.587L1106.42 507.158L1087.94 516.748L1059.53 530.857L1055.24 532.849L1004.51 556.442L999.039 558.66L938.114 583.349L932.377 585.437L863.211 610.544L848.958 615.016L777.442 637.464L739.931 647.781L684.242 663.095L650.118 669.989L574.917 685.173L560.926 687.642L508.363 696.933L502.351 697.995L486.082 701L484.759 701.334L476.159 701.668L467.714 701.68L456.562 702.98L454.511 703.064L443.645 704.018L429.177 706.332L418.18 709.302L372.63 716.494L284.261 719.392L209.823 716.291L149.864 708.646L102.764 696.885L67.7928 682.489L43.4492 665.624L28.3492 647.626L1 630.677" stroke="#8A1480" stroke-opacity="0.1" stroke-linecap="round" stroke-linejoin="round"/>
</g>
<g style="mix-blend-mode:overlay">
<path d="M266.311 450.372L249.398 465.544L240.334 474.215L239.63 474.871" stroke="#8A1480" stroke-opacity="0.1" stroke-linecap="round" stroke-linejoin="round"/>
</g>
<g style="mix-blend-mode:overlay">
<path d="M1565.8 225.949L1561.67 204.098L1549.52 186.779L1533.32 172.634L1511.18 162.71L1486.89 155.601L1458.72 152.333L1430.21 151.439L1399.96 153.944L1371.29 158.392L1343.18 165.74L1318.6 174.661L1296.94 186.052L1280.63 198.778L1269.34 213.735L1264.78 230.075L1266.65 248.753" stroke="#8A1480" stroke-opacity="0.1" stroke-linecap="round" stroke-linejoin="round"/>
</g>
<g style="mix-blend-mode:overlay">
<path d="M1212.81 158.011L1204.95 137.353L1182.65 109.264L1159.41 82.7138L1135.13 58.2748L1110.23 35.3267L1084.46 14.3943L1066.29 1" stroke="#8A1480" stroke-opacity="0.1" stroke-linecap="round" stroke-linejoin="round"/>
</g>
<g style="mix-blend-mode:overlay">
<path d="M444.373 539.648L456.515 547.627L457.91 548.665L468.561 557.253L470.243 561.01L467.858 565.435L461.393 570.54L452.006 576.074L439.614 582.121L425.349 588.383L409.08 594.991L391.857 601.598L373.513 608.313L354.978 614.766L336.073 621.016L317.55 626.693L299.254 631.81L281.721 636.02L264.879 639.288L249.04 641.352L234.25 642.103L220.617 641.4L208.368 639.11L197.418 635.221L188.187 629.568L180.47 622.292L174.852 613.215L171 602.648L169.628 590.41L170.272 576.933L173.731 562.047L179.396 546.268L188.032 529.474L198.909 512.179L212.697 494.3L215.87 491.187L228.584 476.314L247.072 458.185L267.348 440.258L289.7 422.558L312.254 409.7L319.16 405.764L339.902 395.471L341.19 395.698L351.567 389.722L353.058 389.054L376.59 375.135L384.868 370.543L386.203 369.839L401.697 361.299L427.174 347.929L452.877 334.499L477.722 321.069L501.922 307.961L525.979 296.367L548.259 285.382L569.096 274.886L587.262 264.915L603.304 255.337L615.792 246.189L625.429 237.363L630.593 228.895L632.108 220.689L628.244 212.805L627.325 209" stroke="#8A1480" stroke-opacity="0.1" stroke-linecap="round" stroke-linejoin="round"/>
</g>
<g style="mix-blend-mode:overlay">
<path d="M569.526 280.146L549.464 288.018L525.979 296.367L499.083 305.325L470.04 314.831L438.934 325.005L406.694 335.787L373.477 347.237L339.854 359.319L306.076 372.07L272.381 385.452L239.128 399.479L206.245 414.197L174.268 429.535L142.899 445.649L112.878 462.419L83.835 480.095L56.7481 498.427L31.343 517.773L8.88393 537.763L1 546.22" stroke="#8A1480" stroke-opacity="0.1" stroke-linecap="round" stroke-linejoin="round"/>
</g>
<g style="mix-blend-mode:overlay">
<path d="M341.75 711.854L334.426 692.114L327.735 669.476L322.237 647.673L317.549 626.693L312.778 606.798L307.709 587.882L301.269 570.229L293.409 553.686L282.877 538.563L269.769 524.667L252.677 512.394L231.756 501.564L220.831 497.843" stroke="#8A1480" stroke-opacity="0.1" stroke-linecap="round" stroke-linejoin="round"/>
</g>
<g style="mix-blend-mode:overlay">
<path d="M1 227.034L21.9324 228.847L54.2434 233.988L79.4934 240.524L135.742 229.419L187.936 219.758L235.789 211.409L254.335 219.031L266.597 227.666L273.395 237.22L275.017 247.704L272.131 259.106L265.153 271.475L254.634 284.834L241.144 299.218L194.246 310.585L179.158 326.77L131.115 340.224L81.4495 355.181L29.864 371.95L1 382.16" stroke="#8A1480" stroke-opacity="0.1" stroke-linecap="round" stroke-linejoin="round"/>
</g>
<g style="mix-blend-mode:overlay">
<path d="M486.153 699.128L487.227 694.345L488.503 687.367L491.449 665.97L493.608 645.312L493.799 626.037L496.053 619.799" stroke="#8A1480" stroke-opacity="0.1" stroke-linecap="round" stroke-linejoin="round"/>
</g>
<g style="mix-blend-mode:overlay">
<path d="M486.309 699.104L487.227 694.345L488.789 686.878L490.257 679.841" stroke="#8A1480" stroke-opacity="0.1" stroke-linecap="round" stroke-linejoin="round"/>
</g>
<g style="mix-blend-mode:overlay">
<path d="M214.2 550.991L215.798 531.836L215.655 514.135L214.63 508.327" stroke="#8A1480" stroke-opacity="0.1" stroke-linecap="round" stroke-linejoin="round"/>
</g>
<g style="mix-blend-mode:overlay">
<path d="M599.761 264.056L588.12 270.521L570.42 277.701L550.454 288.555L544.967 292.157L543.512 292.837L527.196 299.599L502.542 309.058L477.721 321.069L451.243 332.9L426.184 346.903L401.447 361.108L400.182 361.812L393.503 365.522L376.59 375.135L356.898 386.669L352.318 389.388L329.215 403.832L327.927 404.631L316.632 411.776L301.448 421.365L292.419 428.116L280.098 437.503L272.525 443.836L260.824 453.676L243.315 469.838L238.723 474.871L228.322 485.677L223.241 491.831L222.609 493.012L220.867 496.066L220.772 497.831L219.746 499.322L219.066 500.276L219.019 500.586L224.899 501.481L231.757 501.564L238.424 501.242L245.402 500.336L251.354 499.298L279.908 507.79L303.142 518.095L322.571 529.784L337.874 543.023L351.996 538.837L364.543 534.758L375.874 530.631L384.701 526.838L391.308 523.248L395.316 519.324L394.207 517.618L389.436 515.841L378.105 513.11L367.382 510.593L363.243 509.567L336.3 504.534L328.261 503.043L320.818 501.528L307.853 499.584L300.375 499.191L298.383 501.791L294.041 503.687L287.41 505.834L279.908 507.79L271.022 509.722L262.112 511.213L238.424 501.242L221.619 496.292L220.438 497.712L220.378 498.26L218.756 498.904L215.405 501.182L215.321 501.314L214.176 502.972L206.483 515.71L197.311 530.034L192.17 543.023L189.26 554.939L188.998 565.47L190.87 574.666L195.105 582.312L201.307 588.466L209.525 593.046L219.508 596.112L231.101 597.734L244.245 597.96L258.582 596.982L274.194 594.823L290.499 591.806L307.71 587.882L325.04 583.457L342.764 578.435L359.928 573.247L376.805 567.772L392.31 562.405L406.718 557.014L418.836 551.969L428.879 547.126L435.63 542.797L440.007 538.074L444.373 539.648L452.948 544.657L456.491 547.711L470.529 560.485L477.65 568.166L480.119 571.136L481.228 574.762L488.48 586.14L487.705 591.138L483.16 596.768L474.895 603.077L464.005 609.804L450.48 617.044L435.356 624.511L418.586 632.299L401.077 640.076L382.768 647.924L364.388 655.486L345.877 662.785L327.736 669.476L309.929 675.535L292.717 680.664L276.127 684.755L260.204 687.618L245.068 689.073L230.612 689.085L217.11 687.379L204.3 684.063L192.707 678.839L181.961 671.957L172.801 663.083L164.821 652.623L158.905 640.243L154.588 626.479L152.882 611.009L153.168 594.466L156.484 576.599L162.078 558.04L170.904 538.61L182.08 518.906L196.381 498.821L212.864 478.855L232.079 458.948L253.107 439.471L283.056 421.949L313.387 405.323L343.802 389.603L373.346 374.861L400.278 360.703L426.184 346.903L452.066 333.7L477.721 321.069L502.781 311.038L513.897 306.577L522.723 302.51L526.731 300.613L542.558 293.183L548.522 290.26L564.779 282.615L569.526 280.146L581.954 273.705L588.12 270.521L601.467 263.698L605.797 259.56L618.285 249.481L628.578 240.786L634.553 232.437L637.058 224.338L637.07 219.997L634.339 216.55L630.558 212.196L627.325 209L624.725 207.58L619.907 205.088L614.181 201.82L609.661 200.007L605.212 197.967L603.029 197.216L596.613 195.021L592.176 193.697L585.115 191.109L576.253 188.89L570.098 187.101L554.939 183.917L552.553 183.416L550.466 183.01L549.655 182.855L540.483 180.887L525.824 178.657L496.173 174.673L462.121 170.188L456.467 169.509L447.677 168.34L416.475 166.312L370.436 163.318L364.985 162.972L353.809 162.316L351.829 162.269L312.195 162.126L306.088 165.394L292.717 168.352L273.514 171.989L247.883 176.45L216.979 181.698L180.148 187.984L138.39 195.283L91.0629 203.871L38.9884 213.783L1 221.428" stroke="#8A1480" stroke-opacity="0.1" stroke-linecap="round" stroke-linejoin="round"/>
</g>
<g style="mix-blend-mode:overlay">
<path d="M1490.33 237.912L1480.05 222.669L1466.19 210.455L1446.91 202.309L1426.03 196.822L1401.94 195.033L1378.19 195.522L1353.54 199.267L1331.2 204.921L1310.32 213.389L1293.63 223.48L1280.58 236.122L1273.27 250.328L1271.28 267.038" stroke="#8A1480" stroke-opacity="0.1" stroke-linecap="round" stroke-linejoin="round"/>
</g>
<g style="mix-blend-mode:overlay">
<path d="M1096.99 1L1084.46 14.3943L1077.27 33.967L1081.8 53.647L1098.11 73.327L1117.95 87.1388L1132 95.3567L1148.75 107.415L1161.5 116.599L1162.32 116.885L1164.98 119.068" stroke="#8A1480" stroke-opacity="0.1" stroke-linecap="round" stroke-linejoin="round"/>
</g>
<g style="mix-blend-mode:overlay">
<path d="M1254.81 213.246L1255.37 195.116L1244.25 161.422L1231.14 129.803L1217.07 99.4597L1201.64 71.1801L1185.69 44.2006L1168.67 19.2487L1155.23 1" stroke="#8A1480" stroke-opacity="0.1" stroke-linecap="round" stroke-linejoin="round"/>
</g>
<g style="mix-blend-mode:overlay">
<path d="M476.541 700.642L477.853 682.859L486.011 674.092L487.669 652.874L488.17 632.895L493.8 626.037L492.106 607.943L493.525 602.397" stroke="#8A1480" stroke-opacity="0.1" stroke-linecap="round" stroke-linejoin="round"/>
</g>
<g style="mix-blend-mode:overlay">
<path d="M1806.42 240.893L1790.86 249.541L1756.31 298.24L1707.82 351.817L1641.07 410.786L1556.71 474.119L1450.88 541.771L1325.01 612.345L1176.52 685.101L1008.49 758.287L820.261 830.614L617.068 900.365L400.087 966.203L175.21 966.37L1 954.002" stroke="#8A1480" stroke-opacity="0.1" stroke-linecap="round" stroke-linejoin="round"/>
</g>
<g style="mix-blend-mode:overlay">
<path d="M396.271 708.884L391.906 691.733L387.159 669.286L382.769 647.924L378.535 627.516L373.514 608.313L367.669 590.136L359.929 573.247L350.399 557.443L337.875 543.023" stroke="#8A1480" stroke-opacity="0.1" stroke-linecap="round" stroke-linejoin="round"/>
</g>
<g style="mix-blend-mode:overlay">
<path d="M1806.42 72.0866L1792.89 83.0597L1721.89 138.355L1644.51 194.985L1643.51 222.812L1631.76 255.528L1610.82 292.216L1576.36 333.771L1529.71 379.214L1466.58 429.046L1388.44 482.123L1344.57 507.587L1291.52 538.384L1177.95 596.398L1045.19 655.486L896.715 713.977L731.796 770.691L555.595 824.066L369.076 872.825L178.478 916.061L1 949.946" stroke="#8A1480" stroke-opacity="0.1" stroke-linecap="round" stroke-linejoin="round"/>
</g>
<g style="mix-blend-mode:overlay">
<path d="M1291.7 1L1293.89 18.1037L1296.23 48.9715L1298.41 80.8531L1298.99 114.679L1299.05 149.435L1296.94 186.052L1293.63 223.48L1287.36 262.649L1279.03 302.45L1272.02 326.042L1270.97 329.561L1267.28 342.251L1266.76 343.695" stroke="#8A1480" stroke-opacity="0.1" stroke-linecap="round" stroke-linejoin="round"/>
</g>
<g style="mix-blend-mode:overlay">
<path d="M488.479 586.14L493.524 602.397L496.053 619.799L495.957 638.501L493.608 645.312L487.668 652.874L479.2 660.936L477.852 682.859L468 691.959L467.726 701.549" stroke="#8A1480" stroke-opacity="0.1" stroke-linecap="round" stroke-linejoin="round"/>
</g>
<g style="mix-blend-mode:overlay">
<path d="M443.646 704.018L442.143 687.642L440.39 665.373L438.148 644.393L435.357 624.511L431.063 605.916L425.35 588.383L417.168 572.162L406.719 557.014L392.86 543.238L375.875 530.631L354.526 519.527L329.144 509.77L298.384 501.791L262.59 495.505L261.91 494.682L258.797 494.157L248.456 493.704L229.194 492.297L225.21 491.915" stroke="#8A1480" stroke-opacity="0.1" stroke-linecap="round" stroke-linejoin="round"/>
</g>
<g style="mix-blend-mode:overlay">
<path d="M613.371 255.6L604.795 261.265L588.86 267.909L569.097 274.886L545.266 282.329L518.859 290.189L494.969 302.2L470.041 314.831L443.98 328.189L417.537 342.228L390.832 357.005L358.819 370.245L326.424 384.283L300.673 402.019L269.341 417.942L238.735 434.604L217.183 455.298L189.893 473.714L172.956 495.982L150.664 515.829L139.798 539.23L131.867 562.823L127.883 585.914L126.869 608.755L129.696 630.534L135.159 651.633L143.877 671.158L154.517 689.657L155.733 691.196" stroke="#8A1480" stroke-opacity="0.1" stroke-linecap="round" stroke-linejoin="round"/>
</g>
<g style="mix-blend-mode:overlay">
<path d="M323.574 712.713L317.527 698.436L309.929 675.535L304.085 653.243L299.254 631.81L295.044 611.235L290.5 591.806L285.419 573.39L278.644 556.298L270.104 540.375L258.523 525.955L243.936 512.859L225.544 501.862L224.9 501.481L219.747 499.322" stroke="#8A1480" stroke-opacity="0.1" stroke-linecap="round" stroke-linejoin="round"/>
</g>
<g style="mix-blend-mode:overlay">
<path d="M1425.13 272.322L1416.95 259.19L1405.7 248.932L1389.68 242.587L1372.66 238.794L1353.2 238.556L1334.76 240.536L1316.26 245.676L1300.7 252.737L1287.36 262.649L1278.63 274.349L1273.99 288.781" stroke="#8A1480" stroke-opacity="0.1" stroke-linecap="round" stroke-linejoin="round"/>
</g>
<g style="mix-blend-mode:overlay">
<path d="M1262.3 1L1248.24 6.93979L1212.68 25.5821L1185.69 44.2006L1167.49 63.4632L1159.41 82.7138L1161.51 102.764L1179.71 121.072L1187.85 129.266L1204.18 148.063L1212.81 158.011L1226.29 175.556L1226.73 176.081" stroke="#8A1480" stroke-opacity="0.1" stroke-linecap="round" stroke-linejoin="round"/>
</g>
<g style="mix-blend-mode:overlay">
<path d="M337.874 543.023L323.406 546.888L308.211 550.585L293.409 553.686L278.643 556.298L264.855 558.04L251.759 558.97L240.094 558.767L229.694 557.479L221.082 554.879L214.2 550.991" stroke="#8A1480" stroke-opacity="0.1" stroke-linecap="round" stroke-linejoin="round"/>
</g>
<g style="mix-blend-mode:overlay">
<path d="M213.795 509.138L211.648 511.249L210.729 512.776L209.024 517.594L205.72 523.594L200.77 532.563L199.601 532.611L192.17 543.023L186.553 553.519L179.718 566.329L178.037 570.349L169.628 590.41L162.185 615.279L158.905 640.243L159.836 665.326L166.372 689.598L170.284 697.303" stroke="#8A1480" stroke-opacity="0.1" stroke-linecap="round" stroke-linejoin="round"/>
</g>
<g style="mix-blend-mode:overlay">
<path d="M118.818 292.061L120.535 279.359L118.102 267.849L110.791 257.52L98.1119 248.408L38.225 261.241L1 269.853" stroke="#8A1480" stroke-opacity="0.1" stroke-linecap="round" stroke-linejoin="round"/>
</g>
<g style="mix-blend-mode:overlay">
<path d="M1366.2 307.388L1360.35 296.391L1352.04 288.161L1339.66 283.688L1326.92 281.697L1312.52 283.152L1299.76 286.813L1287.69 293.612L1279.03 302.45L1273.09 314.246" stroke="#8A1480" stroke-opacity="0.1" stroke-linecap="round" stroke-linejoin="round"/>
</g>
<g style="mix-blend-mode:overlay">
<path d="M378.606 710.113L375.421 700.094L369.362 677.384L364.388 655.486L359.665 634.661L354.978 614.766L349.36 596.088L342.764 578.435L334.081 562.107L323.406 546.888L309.451 533.124L292.467 520.6L271.022 509.722L245.402 500.336L222.919 495.016" stroke="#8A1480" stroke-opacity="0.1" stroke-linecap="round" stroke-linejoin="round"/>
</g>
<g style="mix-blend-mode:overlay">
<path d="M305.443 712.999L301.126 703.851L292.717 680.664L286.431 658.014L281.72 636.02L277.772 614.969L274.194 594.824L269.96 575.883L264.855 558.04L257.674 541.58L248.312 526.373L235.931 513.289L235.43 512.752L221.332 502.304L221.034 502.089L218.994 500.944L217.253 502.172L228.214 511.714L228.918 512.68L238.71 526.063L246.499 541.783L251.759 558.97L255.683 577.338L258.581 596.982L261.503 617.629L264.879 639.288L269.554 661.712L276.126 684.755L285.215 708.18L287.493 712.534" stroke="#8A1480" stroke-opacity="0.1" stroke-linecap="round" stroke-linejoin="round"/>
</g>
<g style="mix-blend-mode:overlay">
<path d="M359.665 222.573L361.896 232.425L359.51 243.028L352.664 254.467L342.132 266.716L299.599 275.28L285.776 289.032L269.304 303.81L250.733 319.649L207.39 331.302L162.316 344.172L115.836 358.377L67.6854 374.181L18.557 391.654L1 398.441" stroke="#8A1480" stroke-opacity="0.1" stroke-linecap="round" stroke-linejoin="round"/>
</g>
<g style="mix-blend-mode:overlay">
<path d="M520.385 206.471L523.773 215.357L522.508 224.684L516.294 234.584L506.347 244.973L492.392 256.005L475.575 267.634L455.751 280.015L433.901 293.123L410.034 307.09L384.987 321.915L358.926 337.683L324.182 348.955L289.08 360.882L253.679 373.513L218.279 386.859L182.724 401.053L147.479 416.069L112.246 432.123L77.764 449.144L43.7474 467.428L11.2455 486.81L1 493.656" stroke="#8A1480" stroke-opacity="0.1" stroke-linecap="round" stroke-linejoin="round"/>
</g>
<g style="mix-blend-mode:overlay">
<path d="M1313.51 343.218L1310.25 334.439L1305.14 328.344L1296.73 325.875L1288.55 325.851L1279.46 329.227L1272.48 334.868L1267.08 343.206" stroke="#8A1480" stroke-opacity="0.1" stroke-linecap="round" stroke-linejoin="round"/>
</g>
<g style="mix-blend-mode:overlay">
<path d="M546.971 220.164L546.625 211.147L540.614 202.631L529.367 194.556L511.476 187.054L487.371 180.112L474.418 183.153L446.055 176.653L409.712 171.047L365.677 166.443L312.242 162.388L303.929 160.837L245.199 160.527L232.866 160.456L213.759 160.921L167.803 161.505L92.3391 165.608L4.53047 171L2.95607 171.071L1 171.656" stroke="#8A1480" stroke-opacity="0.1" stroke-linecap="round" stroke-linejoin="round"/>
</g>
<g style="mix-blend-mode:overlay">
<path d="M429.059 705.521L427.747 696.849L424.67 674.223L421.914 652.647L418.587 632.299L414.627 613.013L409.081 594.99L402.008 578.042L392.311 562.405L380.241 547.878L364.544 534.758L345.556 522.854L321.928 512.549L294.042 503.687L260.419 496.734L231.531 492.964" stroke="#8A1480" stroke-opacity="0.1" stroke-linecap="round" stroke-linejoin="round"/>
</g>
<g style="mix-blend-mode:overlay">
<path d="M177.369 162.984L170.069 165.262L92.3391 165.608L77.6924 165.203L67.3515 165.895L1 169.831" stroke="#8A1480" stroke-opacity="0.1" stroke-linecap="round" stroke-linejoin="round"/>
</g>
<g style="mix-blend-mode:overlay">
<path d="M1427.48 1L1425.4 7.83433L1413.18 43.7951L1371.77 54.3627L1332.59 67.1487L1298.41 80.8531L1268.99 96.2751L1246.58 112.317L1231.14 129.803L1224.21 147.944L1240.33 179.885L1254.81 213.246L1261.52 233.391" stroke="#8A1480" stroke-opacity="0.1" stroke-linecap="round" stroke-linejoin="round"/>
</g>
<g style="mix-blend-mode:overlay">
<path d="M638.872 227.666L634.554 232.437L625.429 237.363L610.89 242.551L592.785 247.93L570.54 253.644L545.684 259.619L527.089 270.64L506.407 282.233L475.754 290.022L451.947 303.094L418.921 312.23L393.181 327.02L358.926 337.683L332.495 354.381L306.077 372.07L280.099 390.7L255.171 410.237L231.424 430.68L202.011 447.367L182.128 469.671L156.926 487.86L142.53 511.714L123.207 531.001L115.968 555.845L104.303 575.609L105.698 600.644L111.805 624.821L114.596 644.202L122.599 655.748L127.394 662.654L128.527 664.288L130.388 666.984L137.258 676.024L142.554 681.905L144.033 683.551L146.096 685.745L146.943 687.153L148.171 687.952" stroke="#8A1480" stroke-opacity="0.1" stroke-linecap="round" stroke-linejoin="round"/>
</g>
<g style="mix-blend-mode:overlay">
<path d="M628.245 212.805L624.07 216.741L614.087 220.891L600.12 225.185L581.502 229.73L573.367 239.212L560.963 249.195L545.684 259.619L517.75 266.012L487.908 272.763L466.678 285.156L433.901 293.123L399.444 301.663L363.829 310.775L326.914 320.568L302.952 337.135L278.382 354.775L253.68 373.513L229.551 393.312L206.245 414.197L184.693 436.024L164.917 458.829L147.993 482.314L123.864 500.503L113.571 525.311L95.9778 544.443L94.1171 569.848L85.0166 589.182L93.151 614.217L94.4511 632.717L101.369 649.904L113.714 666.232L133.561 679.937L146.096 685.745L147.253 685.841L148.052 686.055L148.839 687.141L149.484 688.143L152.597 690.027" stroke="#8A1480" stroke-opacity="0.1" stroke-linecap="round" stroke-linejoin="round"/>
</g>
<g style="mix-blend-mode:overlay">
<path d="M634.338 216.55L632.107 220.689L623.782 225.042L611.27 229.539L593.916 234.274L584.267 243.72L570.539 253.644L554.163 263.997L527.088 270.64L498.045 277.653L466.676 285.156L443.704 298.276L410.033 307.09L375.361 316.453L339.579 326.46L314.508 343.146L289.079 360.882L263.721 379.667L239.127 399.478L215.523 420.315L193.792 442.035L173.909 464.649L147.991 482.313L133.714 506.526L113.569 525.311L106.663 550.561L94.1155 569.848L96.2744 595.313L93.1494 614.217L102.047 631.691L105.673 638.811L115.728 652.11L122.168 660.626L123.206 661.986L132.736 671.91L137.006 675.452L140.62 677.897L143.757 680.259L148.051 686.055L148.635 687.558L149.709 688.476L150.782 688.727L151.784 689.288" stroke="#8A1480" stroke-opacity="0.1" stroke-linecap="round" stroke-linejoin="round"/>
</g>
<g style="mix-blend-mode:overlay">
<path d="M459.64 171.62L455.608 173.946L446.055 176.653L430.477 179.826L410.034 183.428L384.212 187.602L353.988 192.349L318.862 197.848L292.562 191.336L258.57 185.944L216.979 181.698L166.3 178.979L106.616 177.882L71.9673 184.322L31.6531 191.92L1 197.86" stroke="#8A1480" stroke-opacity="0.1" stroke-linecap="round" stroke-linejoin="round"/>
</g>
<g style="mix-blend-mode:overlay">
<path d="M1341.04 1L1337.02 2.27622L1293.92 18.0918L1293.89 18.1037L1255.74 35.3029L1224.94 52.7644L1201.64 71.1801L1187.51 89.7509L1182.65 109.264L1187.85 129.266L1201.39 148.922L1202.95 150.652L1214.87 163.414L1226.29 175.556L1226.73 176.081L1237.14 188.306L1244.85 199.482" stroke="#8A1480" stroke-opacity="0.1" stroke-linecap="round" stroke-linejoin="round"/>
</g>
<g style="mix-blend-mode:overlay">
<path d="M480.716 699.998L483.137 696.778L486.012 674.092L491.45 665.97L494.051 658.444L495.959 638.501" stroke="#8A1480" stroke-opacity="0.1" stroke-linecap="round" stroke-linejoin="round"/>
</g>
<g style="mix-blend-mode:overlay">
<path d="M619.882 205.195L618.785 208.797L612.821 212.554L601.311 216.502L585.913 220.617L566.018 224.994L542.999 229.61L534.316 239.569L522.21 250.03L506.346 261.098L487.907 272.763L455.751 280.015L422.08 287.744L386.608 296.069L349.777 305.014L311.443 314.699L288.912 331.088L265.522 348.561L241.739 367.156L218.279 386.859L195.485 407.696L174.267 429.535L154.73 452.412L137.972 476.052L123.862 500.503L102.524 518.906L95.9762 544.443L82.1286 563.419L85.015 589.182L80.6377 607.872L91.086 626.669L94.4495 632.717L106.747 647.745L113.629 656.166L126.2 668.176L132.271 673.973L134.668 675.941L137.567 677.42L141.073 681.332L143.817 684.29L145.975 687.415L152.5 691.136" stroke="#8A1480" stroke-opacity="0.1" stroke-linecap="round" stroke-linejoin="round"/>
</g>
<g style="mix-blend-mode:overlay">
<path d="M553.472 185.539L550.979 188.282L542.475 191.3L529.367 194.556L511.082 198.146L496.197 190.322L474.418 183.153L456.718 186.529L433.734 190.381L406.528 194.699L374.562 199.649L338.673 205.243L318.862 197.848L279.609 204.122L235.789 211.409L210.813 204.801L178.359 199.41L131.079 207.795L78.7539 217.587L21.9324 228.847L1 233.284" stroke="#8A1480" stroke-opacity="0.1" stroke-linecap="round" stroke-linejoin="round"/>
</g>
<g style="mix-blend-mode:overlay">
<path d="M575.167 189.749L574.714 192.612L568.13 195.737L556.966 199.041L540.614 202.631L520.385 206.471L511.082 198.146L488.826 202.034L462.073 206.364L431.742 211.147L397.379 216.538L359.665 222.573L351.936 213.532L338.673 205.243L298.395 211.683L254.335 219.031L206.125 227.511L154.11 237.22L98.1119 248.408L79.4934 240.524L19.0221 253.322L1 257.425" stroke="#8A1480" stroke-opacity="0.1" stroke-linecap="round" stroke-linejoin="round"/>
</g>
<g style="mix-blend-mode:overlay">
<path d="M628.208 244.46L626.324 246.607L618.738 252.153L605.284 258.474L587.262 264.915L565.84 271.654L540.71 278.846L518.859 290.189L489.709 298.598L458.96 307.495L433.138 321.259L406.695 335.787L379.751 351.149L352.879 367.311L326.424 384.283L294.054 399.061L262.363 414.531L238.735 434.604L209.716 451.827L189.893 473.714L165.132 492.476L150.664 515.829L131.831 535.724L124.233 560.008L120.798 583.898L113.677 604.842L111.805 624.821L117.709 639.157L121.561 648.52L127.835 658.468L131.998 663.942L135.516 670.633L135.564 670.741L140.693 678.076L146.43 685.256" stroke="#8A1480" stroke-opacity="0.1" stroke-linecap="round" stroke-linejoin="round"/>
</g>
<g style="mix-blend-mode:overlay">
<path d="M454.679 702.885L456.528 701.441L455.931 678.434L454.905 656.774L453.391 636.259L450.48 617.044L446.21 598.938L439.615 582.121L430.848 566.377L418.837 551.969L403.845 538.694L384.701 526.838L361.741 516.27L333.677 507.349L300.865 500.002L299.982 498.546L296.392 497.855L281.352 496.984L263.616 494.921L262.244 495.1L260.419 496.734L256.841 497.95L251.354 499.298L223.874 493.74" stroke="#8A1480" stroke-opacity="0.1" stroke-linecap="round" stroke-linejoin="round"/>
</g>
<g style="mix-blend-mode:overlay">
<path d="M1 185.491L3.06341 185.396L71.9673 184.322L130.983 185.241L180.148 187.984L221.118 192.135L253.846 197.597L279.609 204.122L298.395 211.684L311.229 220.116L318.194 229.443L320.138 239.581L317.264 250.602L310.31 262.47L299.599 275.28L254.634 284.834L207.211 295.532L157.224 307.567L104.922 321.104L50.0569 336.419L40.8013 353.487L29.864 371.95L18.557 391.654L7.08291 412.73L1 415.342" stroke="#8A1480" stroke-opacity="0.1" stroke-linecap="round" stroke-linejoin="round"/>
</g>
<g style="mix-blend-mode:overlay">
<path d="M202.011 705.222L201.009 703.469L192.708 678.839L188.51 654.174L188.188 629.568L190.549 605.582L195.105 582.312L200.711 560.127L206.663 539.099L211.935 519.431L213.783 510.39" stroke="#8A1480" stroke-opacity="0.1" stroke-linecap="round" stroke-linejoin="round"/>
</g>
<g style="mix-blend-mode:overlay">
<path d="M1337.08 1L1337.02 2.27622L1335.58 33.7165L1332.59 67.1487L1329.41 101.475L1324.32 137.675L1318.59 174.661L1310.32 213.389L1300.7 252.737L1288.86 289.95L1287.69 293.612L1273.8 331.326L1272.48 334.868L1265.8 349.384L1263.74 353.845L1260.29 361.323" stroke="#8A1480" stroke-opacity="0.1" stroke-linecap="round" stroke-linejoin="round"/>
</g>
<g style="mix-blend-mode:overlay">
<path d="M456.586 702.694L456.526 701.441L468.001 691.959L468.299 669.56L479.2 660.936L479.296 640.433L478.151 621.099L474.894 603.077L469.623 586.164L461.393 570.54L450.396 556.012L435.63 542.797L417.333 530.774L394.409 520.206" stroke="#8A1480" stroke-opacity="0.1" stroke-linecap="round" stroke-linejoin="round"/>
</g>
<g style="mix-blend-mode:overlay">
<path d="M413.04 707.155L412.789 706.081L408.508 683.002L404.667 661.044L401.077 640.076L396.819 620.324L391.857 601.598L385.142 584.161L376.805 567.772L365.677 552.744L351.996 538.837L334.463 526.409L313.411 515.269L287.41 505.834L256.84 497.95L224.529 492.845" stroke="#8A1480" stroke-opacity="0.1" stroke-linecap="round" stroke-linejoin="round"/>
</g>
<g style="mix-blend-mode:overlay">
<path d="M270.402 712.104L269.913 711.234L260.204 687.618L253.489 664.228L249.04 641.352L246.166 619.215L244.245 597.96L242.385 577.803L240.095 558.767L236.302 541.079L230.648 524.691L222.502 510.879L221.894 509.866L216.526 503.926L216.801 503.007L217.29 502.208L218.733 500.395L219.222 500.026" stroke="#8A1480" stroke-opacity="0.1" stroke-linecap="round" stroke-linejoin="round"/>
</g>
<g style="mix-blend-mode:overlay">
<path d="M1 173.206L3.0157 173.123L81.211 169.699L155.959 168.435L219.377 169.377L273.514 171.99L318.278 176.081L355.24 181.317L384.212 187.602L406.528 194.699L421.973 202.595L431.742 211.147L435.69 220.39L434.855 230.254L429.201 240.81L419.683 252.033L406.325 264.032L390.02 276.806L370.925 290.463L349.778 305.014L326.913 320.568L288.913 331.087L249.851 342.43L209.68 354.727L168.65 368.062L126.523 382.625L83.8469 398.477L40.3481 415.914L1 433.113" stroke="#8A1480" stroke-opacity="0.1" stroke-linecap="round" stroke-linejoin="round"/>
</g>
<g style="mix-blend-mode:overlay">
<path d="M118.818 292.061L66.0514 305.098L61.6979 306.171L1.88262 322.19L1 322.44" stroke="#8A1480" stroke-opacity="0.1" stroke-linecap="round" stroke-linejoin="round"/>
</g>
<g style="mix-blend-mode:overlay">
<path d="M183.678 701.525L173.695 699.056L170.344 697.434L164.786 695.597L164.726 695.573L163.187 695.084L160.551 694.07L155.781 692.21L154.719 691.983L153.574 691.041L152.823 690.707L152.656 689.872L152.214 689.419L151.785 689.288L150.652 688.524L149.817 687.976L146.942 687.153L132.534 680.628L118.412 672.446L97.3488 660.233L86.1968 643.618L80.591 637.666L63.9166 619.954L65.5745 601.312L55.6152 575.919L67.9958 556.668L68.8426 530.893L74.5438 505.166L83.8352 480.095L96.8359 455.596L112.246 432.123L129.994 409.593L148.875 388.267L168.65 368.062L188.259 349.098L207.39 331.302L225.15 314.699L241.144 299.218L285.776 289.032L328.177 279.872L368.432 271.558L406.325 264.032L442.131 257.138L475.336 250.829L506.347 244.973L534.317 239.569L559.77 234.488L581.501 229.729L585.914 220.617L585.127 211.934L579.7 203.609L568.131 195.737L550.979 188.282L526.731 181.4L525.824 178.657L518.215 176.999L496.555 174.077L492.38 173.54L490.532 173.242L475.026 171.465L472.354 171.155" stroke="#8A1480" stroke-opacity="0.1" stroke-linecap="round" stroke-linejoin="round"/>
</g>
<g style="mix-blend-mode:overlay">
<path d="M188.807 704.555L177.047 701.99L172.622 700.153L167.016 697.386L165.334 697.052L164.666 697.112L156.901 694.106L154.695 692.579L140.179 688.548L123.434 681.928L94.6053 670.526L77.7163 654.901L67.912 637.69L63.9164 619.954L47.6834 594.919L55.615 575.919L51.3212 549.917L51.5955 524.119L56.7481 498.427L65.4669 473.463L77.764 449.144L92.3272 425.897L108.99 403.641L126.523 382.625L144.664 362.754L162.316 344.172L179.158 326.77L225.149 314.699L269.304 303.81L311.491 293.946L351.686 285L390.02 276.806L426.208 269.316L460.534 262.386L492.392 256.005L522.21 250.03L549.035 244.472L573.366 239.212L593.917 234.274L600.119 225.185L601.312 216.502L598.163 208.153L589.075 200.198L574.714 192.612L553.472 185.539L529.45 179.838L526.337 180.207L522.091 184.06L511.476 187.054L496.197 190.322L475.73 193.983L451.159 198.027L421.973 202.595L389.054 207.7L351.936 213.532L311.229 220.116L266.597 227.666L218.387 236.289L166.408 246.189L110.791 257.52L51.524 270.521L38.225 261.241L19.0221 253.322L1 248.777" stroke="#8A1480" stroke-opacity="0.1" stroke-linecap="round" stroke-linejoin="round"/>
</g>
<g style="mix-blend-mode:overlay">
<path d="M1088.15 73.5059L1053.54 57.3564L1050.37 55.9371L1038.35 50.9157L1025.76 45.5365L1010.99 39.2985L978.024 21.7058L957.127 4.04146L955.779 1" stroke="#8A1480" stroke-opacity="0.1" stroke-linecap="round" stroke-linejoin="round"/>
</g>
<g style="mix-blend-mode:overlay">
<path d="M1161.5 116.599L1137.29 101.165L1125.81 93.8539L1112.96 86.459L1088.78 73.2197L1085.6 70.0351L1063.63 53.3965L1049.57 34.0386L1047.7 14.7879L1024.07 1" stroke="#8A1480" stroke-opacity="0.1" stroke-linecap="round" stroke-linejoin="round"/>
</g>
<g style="mix-blend-mode:overlay">
<path d="M1112.96 86.459L1105.38 82.1055L1089.41 72.9334L1085.4 70.8819L1052.64 54.1122L1028.57 35.1359L993.099 18.8074L957.126 4.04146L948.646 1" stroke="#8A1480" stroke-opacity="0.1" stroke-linecap="round" stroke-linejoin="round"/>
</g>
<g style="mix-blend-mode:overlay">
<path d="M145.404 688.083L138.271 685.018L115.228 675.094L97.3488 660.233L89.6557 654.353L67.9123 637.69L62.7836 632.585L44.1174 614.05L26.6797 589.051" stroke="#8A1480" stroke-opacity="0.1" stroke-linecap="round" stroke-linejoin="round"/>
</g>
<g style="mix-blend-mode:overlay">
<path d="M1053.53 57.3564L1050.37 55.9371L1041.43 51.0827L1015.42 36.9727L978.023 21.7058L940.297 7.96553L918.446 1" stroke="#8A1480" stroke-opacity="0.1" stroke-linecap="round" stroke-linejoin="round"/>
</g>
<g style="mix-blend-mode:overlay">
<path d="M139.846 681.225L137.878 679.519L134.669 675.941L123.207 661.986L114.596 644.202L110.779 635.925L103.432 620.014" stroke="#8A1480" stroke-opacity="0.1" stroke-linecap="round" stroke-linejoin="round"/>
</g>
<g style="mix-blend-mode:overlay">
<path d="M376.113 375.195L371.091 377.866L366.595 380.24L348.31 389.949L339.902 395.471L324.146 405.49L315.964 410.38L295.938 422.331L287.791 427.436L267.348 440.258L260.86 444.659L239.605 459.091L232.496 464.351L212.864 478.855L207.282 483.494L188.425 499.203L166.169 520.206L147.443 541.365L131.866 562.823L120.797 583.898L120.595 607.633L124.507 630.367L128.073 641.9L131.353 652.504L141.742 673.114L150.89 688.429" stroke="#8A1480" stroke-opacity="0.1" stroke-linecap="round" stroke-linejoin="round"/>
</g>
<g style="mix-blend-mode:overlay">
<path d="M285.012 435.105L272.524 443.836L254.264 456.324L246.153 462.633L228.584 476.314L211.803 490.829L204.503 497.151L198.015 503.449L182.08 518.906L177.404 524.286L162.817 541.067L157.76 548.116L146.513 563.753L143.304 569.86L134.681 586.26L131.735 594.728L126.868 608.754L124.507 630.367L127 651.383L132.152 663.036" stroke="#8A1480" stroke-opacity="0.1" stroke-linecap="round" stroke-linejoin="round"/>
</g>
<g style="mix-blend-mode:overlay">
<path d="M220.712 493.466L215.262 497.449L213.783 497.366L198.909 512.179L194.067 517.749L179.337 534.698L174.303 541.509L162.078 558.04L158.869 563.693L148.743 581.572L145.642 589.254L139.106 605.427L134.729 628.709L135.158 651.633L140.454 673.007L143.567 679.03" stroke="#8A1480" stroke-opacity="0.1" stroke-linecap="round" stroke-linejoin="round"/>
</g>
<g style="mix-blend-mode:overlay">
<path d="M164.737 695.585L163.938 695.335L163.044 694.893L160.527 694.38L155.875 692.484L155.577 691.124L154.861 691.351L153.633 691.303L153.418 690.802L153.037 690.063L152.715 689.729L152.214 689.419L151.009 688.632L149.375 688.417L148.111 688.5L133.559 679.937L130.22 676.537L113.712 666.232L105.101 659.147L86.1961 643.618L80.6022 626.3L80.638 607.872L71.5732 582.598L82.1289 563.419L83.5005 537.775L102.525 518.906L112.555 493.907L126.415 469.337L142.898 445.649L162.042 422.808L182.724 401.053L204.801 380.347L227.284 360.822L249.85 342.43L271.749 325.183L292.49 309.046L311.49 293.946L328.177 279.872L342.132 266.716L382.076 259.023L419.683 252.033L454.511 245.724L486.965 239.903L516.294 234.584L542.999 229.61L546.971 220.164L568.261 215.906L585.126 211.934L598.163 208.153L605.82 204.575L609.291 200.543L614.181 201.82L619.167 204.551L619.942 204.968" stroke="#8A1480" stroke-opacity="0.1" stroke-linecap="round" stroke-linejoin="round"/>
</g>
<g style="mix-blend-mode:overlay">
<path d="M184.275 701.632L176.021 699.08L174.053 698.46L169.485 697.744L165.334 697.052L160.611 694.524L156.09 691.661L155.017 691.005L153.121 690.48L149.459 688.321L147.753 685.459L143.793 682.251L137.877 679.519L126.928 672.506L117.16 663.871L101.368 649.904L95.1539 642.831L80.6027 626.3L77.5254 621.171L65.5743 601.312L71.5737 582.598L67.9955 556.668L83.501 537.775L89.6555 512.084L99.3643 487.001L112.878 462.419L128.92 438.803L147.479 416.069L167.397 394.493L188.461 374.002L209.68 354.727L230.719 336.61L250.733 319.649L292.491 309.046L332.578 299.349L370.925 290.463L407.673 282.257L442.452 274.695L475.575 267.634L506.347 261.098L535.151 254.944L549.035 244.472L559.769 234.488L566.019 224.994L568.261 215.906L565.077 207.282L556.966 199.041L542.475 191.3L522.091 184.06L494.348 177.476L487.371 180.112L455.608 173.946L416.535 168.626L369.434 163.927L365.128 163.032L336.526 162.006L330.861 161.804L312.195 162.15L249.922 161.446L246.607 163.283L236.623 165.883L219.377 169.377L196.154 173.671L166.3 178.979L130.983 185.241L89.4885 192.743L42.8528 201.462L1 209.644" stroke="#8A1480" stroke-opacity="0.1" stroke-linecap="round" stroke-linejoin="round"/>
</g>
<g style="mix-blend-mode:overlay">
<path d="M216.789 501.767L214.928 502.888L210.456 507.039L208.643 507.373L196.787 523.152L191.789 529.808L179.397 546.268L176.189 551.504L164.834 570.015L161.733 576.527L153.169 594.466L151.63 599.726L146.013 618.881L143.174 643.344L146.144 666.864L154.517 689.657" stroke="#8A1480" stroke-opacity="0.1" stroke-linecap="round" stroke-linejoin="round"/>
</g>
<g style="mix-blend-mode:overlay">
<path d="M212.924 508.172L210.956 511.237L205.505 520.922L201.963 532.611L198.325 543.095L188.998 565.47L180.732 588.979L174.852 613.215L171.751 638.131L172.801 663.083L178.12 688.023L184.275 701.632" stroke="#8A1480" stroke-opacity="0.1" stroke-linecap="round" stroke-linejoin="round"/>
</g>
<g style="mix-blend-mode:overlay">
<path d="M200.745 532.623L195.593 542.618L189.259 554.939L187.625 558.743L179.181 578.304L170.999 602.648L166.132 627.433L164.82 652.623L168.458 677.432L176.02 699.08" stroke="#8A1480" stroke-opacity="0.1" stroke-linecap="round" stroke-linejoin="round"/>
</g>
<g style="mix-blend-mode:overlay">
<path d="M494.05 658.444L493.179 663.393L490.257 679.841L488.182 687.94L483.137 696.778L482.755 699.664" stroke="#8A1480" stroke-opacity="0.1" stroke-linecap="round" stroke-linejoin="round"/>
</g>
<g style="mix-blend-mode:overlay">
<path d="M220.76 490.424L215.154 497.401L207.354 507.11L202.296 512.967L188.031 529.474L183.022 536.165L170.546 552.827L167.338 558.254L156.484 576.599L153.359 583.695L145.785 600.871L140.048 624.821L138.927 648.604L143.877 671.158L153.729 689.741L155.577 691.124" stroke="#8A1480" stroke-opacity="0.1" stroke-linecap="round" stroke-linejoin="round"/>
</g>
<g style="mix-blend-mode:overlay">
<path d="M249.398 465.544L235.717 479.522L234.954 480.298L226.772 489.792L224.959 491.891L224.911 492.094L224.47 492.833L223.206 493.609L220.892 496.078L220.403 497.7L219.353 499.155L218.733 500.395L218.864 500.562L216.514 501.838L215.202 503.198L215.823 504.737L215.93 505.047L214.785 506.216L213.759 508.291L213.735 510.068L211.242 513.587L205.505 520.922L202.213 526.373L199.601 532.611L198.325 543.095L198.421 552.279L200.711 560.127L205.267 566.496L211.851 571.434L220.319 574.929L230.624 576.992L242.385 577.803L255.683 577.338L269.96 575.883L285.418 573.39L301.27 570.229L317.801 566.329L334.082 562.107L350.398 557.443L365.677 552.744L380.24 547.878L392.859 543.238L403.844 538.694L411.919 534.567L417.334 530.774L418.813 527.613" stroke="#8A1480" stroke-opacity="0.1" stroke-linecap="round" stroke-linejoin="round"/>
</g>
<g style="mix-blend-mode:overlay">
<path d="M1271.3 267.265L1271.27 267.086L1269.63 257.675L1264.78 230.075L1255.37 195.116L1263.6 178.227L1255.58 144.688L1246.58 112.317L1236 81.9505L1224.94 52.7644L1212.68 25.5821L1200.8 1" stroke="#8A1480" stroke-opacity="0.1" stroke-linecap="round" stroke-linejoin="round"/>
</g>
<g style="mix-blend-mode:overlay">
<path d="M149.674 687.558L148.839 687.141L147.276 686.043L143.567 683.073L139.87 681.881L126.929 672.506L113.63 656.165L105.674 638.811L103.432 620.026L103.42 619.99L96.2754 595.312L104.302 575.609L106.664 550.561L123.207 531.001L133.715 506.526L156.926 487.86L173.91 464.649L202.011 447.366L223.79 425.874L247.537 405.18L272.382 385.452L298.145 366.702L324.182 348.955L350.064 332.221L384.987 321.915L418.92 312.23L443.705 298.276L475.754 290.022L498.046 277.653L517.75 266.012L535.152 254.944L560.962 249.195L584.268 243.72L603.638 238.568L619.656 233.606L630.594 228.895L637.356 223.384L637.07 219.997" stroke="#8A1480" stroke-opacity="0.1" stroke-linecap="round" stroke-linejoin="round"/>
</g>
<g style="mix-blend-mode:overlay">
<path d="M480.119 571.136L481.228 574.762L476.839 580.547L469.623 586.164L459.043 592.39L446.21 598.938L431.062 605.916L414.626 613.013L396.819 620.324L378.534 627.516L359.665 634.661L340.927 641.364L322.237 647.673L304.084 653.243L286.432 658.014L269.555 661.712L253.489 664.228L238.305 665.397L224.195 665.051L211.051 663.155L199.219 659.481L188.509 654.174L179.456 646.958L171.751 638.131L166.133 627.433L162.185 615.279L160.766 601.431L161.35 586.415L164.833 570.015L170.546 552.828L179.337 534.698L190.417 516.163L204.503 497.151L220.724 478.139L239.605 459.091L260.287 440.353L283.056 421.949L307.149 404.094L332.602 386.824L358.818 370.245L385.547 354.417L412.432 339.317L438.934 325.005L464.959 311.419L489.708 298.598L513.289 286.42L534.662 274.934L560.855 268.016L578.03 257.77L592.784 247.93L603.638 238.568L611.271 229.539L614.086 220.891L612.822 212.554L605.82 204.575L593.822 196.941L575.167 189.749L554.712 184.179L550.466 183.01L540.483 180.887L532.682 179.706L525.836 178.705L518.215 176.999L496.555 174.077L490.531 173.242L478.819 171.727L472.354 171.155L456.503 169.532L452.948 169.389L421.496 166.873L416.511 167.684L409.712 171.047L397.296 173.91L378.761 177.357L355.24 181.317L326.185 185.98L292.562 191.336L253.846 197.597L210.813 204.801L162.984 213.186L110.91 222.824L54.2434 233.987L1 245.199" stroke="#8A1480" stroke-opacity="0.1" stroke-linecap="round" stroke-linejoin="round"/>
</g>
<g style="mix-blend-mode:overlay">
<path d="M605.212 197.967L609.136 200.615L618.785 208.797L624.069 216.741L623.783 225.042L619.656 233.606L610.889 242.551L599.117 251.819L583.612 261.528L565.84 271.654L545.266 282.329L523.129 293.505L499.083 305.325L474.131 317.729L448.154 330.813L421.878 344.541L395.447 358.95L369.29 373.978L343.802 389.603L319.16 405.764L295.938 422.331L274.063 439.268L254.264 456.324L237.029 474.179L235.836 476.66L221.619 491.032L221.75 492.404L221.655 494.05L221.619 496.292L220.498 497.735L219.019 499.024L218.303 500.443L217.289 502.208L215.882 503.449L215.047 504.522L214.403 506.097L213.818 508.148L215.655 514.136L218.876 518.787L223.801 522.341L230.648 524.691L238.711 526.063L248.312 526.373L258.522 525.955L269.769 524.667L280.933 522.938L292.467 520.6L303.142 518.095L313.411 515.269L321.927 512.549L329.143 509.77L333.676 507.349L336.383 504.641L363.243 509.567L367.382 510.593L395.316 519.324L419.087 527.017L421.818 527.625L433.352 533.231L433.447 533.279L438.493 535.748L439.244 538.908L455.25 551.587L467.857 565.435L476.839 580.547L483.16 596.768L486.631 614.265L488.17 632.895L479.296 640.433L468.18 648.365L454.904 656.774L440.389 665.373L424.669 674.223L408.507 683.002L391.905 691.733L375.421 700.094L359.033 708.049L351.698 711.389" stroke="#8A1480" stroke-opacity="0.1" stroke-linecap="round" stroke-linejoin="round"/>
</g>
<g style="mix-blend-mode:overlay">
<path d="M1272.48 317.192L1272.84 314.759L1274.77 302.116L1278.63 274.349L1280.58 236.122L1280.63 198.778L1278.08 163.295L1274.45 128.813L1268.99 96.2751L1263.05 64.799L1255.74 35.3029L1248.24 6.93979L1246.27 1" stroke="#8A1480" stroke-opacity="0.1" stroke-linecap="round" stroke-linejoin="round"/>
</g>
<g style="mix-blend-mode:overlay">
<path d="M163.199 695.108L160.814 694.536L158.5 693.832L157.402 693.247L155.542 692.448L154.099 692.246L140.179 688.548L115.228 675.094L102.847 668.439L77.7163 654.901L70.6553 649.856L46.3714 632.49L41.5289 627.993L21.0259 608.945L2.30007 584.029L1 581.513" stroke="#8A1480" stroke-opacity="0.1" stroke-linecap="round" stroke-linejoin="round"/>
</g>
<g style="mix-blend-mode:overlay">
<path d="M628.971 243.863L628.542 244.09L618.284 249.481L603.303 255.337L583.612 261.528L560.854 268.016L540.709 278.846L513.288 286.42L483.339 294.53L458.959 307.495L426.517 316.989L393.181 327.02L366.607 342.729L339.854 359.319L313.268 376.852L287.242 395.268L262.362 414.531L231.423 430.68L209.715 451.827L182.127 469.671L165.131 492.476L142.529 511.714L131.83 535.724L115.967 555.845L113.068 580.38L113.677 604.842L118.698 628.387L123.326 641.209L126.999 651.383L131.925 660.102L135.432 666.292L140.453 673.007L152.154 689.335" stroke="#8A1480" stroke-opacity="0.1" stroke-linecap="round" stroke-linejoin="round"/>
</g>
<g style="mix-blend-mode:overlay">
<path d="M212.375 511.523L211.433 515.245L206.185 531.156L205.625 532.682L198.42 552.279L190.87 574.666L184.704 598.032L180.47 622.292L179.456 646.958L181.961 671.957L189.26 696.551L192.66 703.338" stroke="#8A1480" stroke-opacity="0.1" stroke-linecap="round" stroke-linejoin="round"/>
</g>
<g style="mix-blend-mode:overlay">
<path d="M635.579 235.645L633.742 237.924L633.444 238.532L628.971 243.863L625.846 246.654L618.737 252.153L615.147 255.015L605.796 259.56L588.859 267.909L571.243 278.429L564.778 282.615L548.999 289.139L527.136 298.788L502.78 311.038L495.493 315.177L477.84 323.526L471.626 326.519L452.602 335.679L446.746 338.59L427.209 348.334L401.935 361.49L376.59 375.135L360.249 384.581L351.566 389.722L329.358 403.748L305.777 419.779L285.012 435.105L266.31 450.372L254.264 460.57L243.314 469.838L228.882 485.927L224.493 491.951L224.195 492.786L223.622 493.692L222.716 494.813L220.891 496.078L218.756 498.904L218.851 500.467L218.899 500.574L217.706 502.566L216.752 504.176L215.846 504.94L214.927 505.5L214.784 506.216L214.701 507.253L214.534 507.516L214.259 507.957L214.14 508.661L213.663 508.911L212.244 511.881L211.934 519.431L212.757 526.277L215.798 531.836L220.796 536.165L227.797 539.183L236.301 541.079L246.499 541.783L257.675 541.58L270.103 540.375L282.877 538.563L296.367 535.998L309.451 533.124L322.571 529.784L334.463 526.409L345.555 522.854L354.524 519.527L361.74 516.27L365.855 513.468L391.308 523.248L411.918 534.567L428.879 547.126L441.868 561.034L452.006 576.074L459.043 592.39L464.005 609.804L466.736 628.518L468.179 648.365L468.299 669.56L455.93 678.434L442.142 687.642L427.746 696.849L412.789 706.081L410.547 707.417" stroke="#8A1480" stroke-opacity="0.1" stroke-linecap="round" stroke-linejoin="round"/>
</g>
<g style="mix-blend-mode:overlay">
<path d="M490.257 679.841L488.468 687.451L486.095 699.14" stroke="#8A1480" stroke-opacity="0.1" stroke-linecap="round" stroke-linejoin="round"/>
</g>
<g style="mix-blend-mode:overlay">
<path d="M635.579 235.645L634.482 236.456L628.578 240.786L615.792 246.189L599.117 251.819L578.03 257.77L554.163 263.997L534.662 274.934L506.406 282.233L483.339 294.53L451.947 303.094L426.518 316.989L400.325 331.672L373.477 347.237L346.581 363.661L319.995 380.944L294.053 399.061L269.34 417.942L245.927 437.55L224.601 457.684L205.123 478.354L188.425 499.203L174.005 520.278L162.817 541.067L154.087 561.713L148.743 581.572L145.785 600.871L146.012 618.881L148.29 635.913L153.275 651.275L159.835 665.326L168.459 677.432L178.12 688.023L189.26 696.551L201.008 703.469L209.62 706.761" stroke="#8A1480" stroke-opacity="0.1" stroke-linecap="round" stroke-linejoin="round"/>
</g>
<g style="mix-blend-mode:overlay">
<path d="M172.121 700.929L152.441 696.647L119.164 684.851L94.6053 670.526L83.4294 664.944L54.7324 650.572L48.0173 646.099L21.4076 628.375L1 610.675" stroke="#8A1480" stroke-opacity="0.1" stroke-linecap="round" stroke-linejoin="round"/>
</g>
<g style="mix-blend-mode:overlay">
<path d="M171.703 700.094L152.441 696.647L130.113 691.244L94.9989 682.739L81.0201 678.1L43.4492 665.624L33.2633 661.258L1 647.423" stroke="#8A1480" stroke-opacity="0.1" stroke-linecap="round" stroke-linejoin="round"/>
</g>
<g style="mix-blend-mode:overlay">
<path d="M468.561 557.253L470.529 560.485L480.715 575.442L487.704 591.138L492.105 607.944L486.631 614.265L478.15 621.099L466.736 628.518L453.389 636.259L438.146 644.393L421.913 652.647L404.667 661.044L387.157 669.286L369.362 677.384L351.793 685.006L334.427 692.114L317.526 698.436L301.126 703.851L285.215 708.18L269.912 711.234L263.77 711.938" stroke="#8A1480" stroke-opacity="0.1" stroke-linecap="round" stroke-linejoin="round"/>
</g>
<g style="mix-blend-mode:overlay">
<path d="M1049.69 55.5673L1042.87 52.7048L1025.76 45.5365L1010.99 39.2985L1007.39 37.9507L972.37 24.8546L940.298 7.96553L932.259 1" stroke="#8A1480" stroke-opacity="0.1" stroke-linecap="round" stroke-linejoin="round"/>
</g>
<g style="mix-blend-mode:overlay">
<path d="M236.231 473.499L229.718 479.248L215.871 491.187L212.698 494.3L206.043 500.837L190.418 516.163L185.683 521.602L170.905 538.61L165.848 545.552L154.088 561.713L150.879 567.629L141.54 584.817L138.511 592.975L132.917 608.051L129.696 630.534L131.354 652.504L139.167 672.888L143.603 679.185L147.516 684.564" stroke="#8A1480" stroke-opacity="0.1" stroke-linecap="round" stroke-linejoin="round"/>
</g>
<g style="mix-blend-mode:overlay">
<path d="M235.716 479.523L226.699 489.899L225.208 491.915L225.065 492.118L224.529 492.845L223.873 493.74L222.883 495.004L220.867 496.066L217.682 498.463L216.513 501.838L216.311 503.926L215.762 504.963L215.404 506.43L215.297 506.717L216.466 507.337L221.893 509.866L228.214 511.714L235.43 512.752L243.934 512.859L252.677 512.394L262.111 511.213L280.933 522.938L296.367 535.998L308.21 550.585L317.8 566.329L325.04 583.457L331.123 601.622L336.073 621.016L340.927 641.364L345.877 662.785L351.793 685.006L359.033 708.049L360.189 710.983" stroke="#8A1480" stroke-opacity="0.1" stroke-linecap="round" stroke-linejoin="round"/>
</g>
<g style="mix-blend-mode:overlay">
<path d="M234.953 480.298L228.882 485.927L223.288 491.736L222.608 492.535" stroke="#8A1480" stroke-opacity="0.1" stroke-linecap="round" stroke-linejoin="round"/>
</g>
</g>
</svg>
